<svg width="665" height="760" viewBox="0 0 665 780" fill="none" xmlns="http://www.w3.org/2000/svg">
<g clip-path="url(#clip0_388_7437)">
<path d="M673.1 663.65L756.02 791.51H839L673.1 535.69L507.2 791.51H590.18L673.1 663.65Z" fill="#FC5A44"/>
<path d="M977.58 0.699951H894.59L679.83 331.86L465.06 0.699951H382.08L638.34 395.84L381.73 791.51H464.72L679.83 459.81L894.94 791.51H977.92L721.32 395.84L977.58 0.699951Z" fill="#FC5A44"/>
<path d="M329.08 0.649883L246.1 0.629883L502.27 395.83L245.58 791.44L328.56 791.46L585.25 395.85L329.08 0.649883Z" fill="#FC5A44"/>
<path d="M845.56 0.699951H762.58L679.65 128.57L596.73 0.699951H513.74L679.65 256.52L845.56 0.699951Z" fill="#FC5A44"/>
</g>
<defs>
<clipPath id="clip0_388_7437">
<rect width="1224" height="792.01" fill="white"/>
</clipPath>
</defs>
</svg>
