<svg width="1126" height="684" viewBox="0 0 1126 684" fill="none" xmlns="http://www.w3.org/2000/svg">
<circle cx="342.5" cy="341.5" r="341.5" fill="#C5D8FF"/>
<circle cx="784.5" cy="341.5" r="341.5" fill="#C5D8FF"/>
<mask id="mask0_1771_3404" style="mask-type:alpha" maskUnits="userSpaceOnUse" x="0" y="0" width="684" height="684">
<circle cx="342.153" cy="341.666" r="341.442" fill="#C5D8FF"/>
</mask>
<g mask="url(#mask0_1771_3404)">
<circle cx="784.19" cy="341.666" r="341.442" fill="white"/>
</g>
<path d="M168.167 314V292.88H176.487C179.026 292.88 180.882 293.392 182.055 294.416C183.229 295.44 183.815 296.859 183.815 298.672C183.815 299.781 183.495 300.773 182.855 301.648C182.215 302.501 181.277 303.045 180.039 303.28V303.312C181.405 303.525 182.461 304.091 183.207 305.008C183.975 305.904 184.359 306.949 184.359 308.144C184.359 309.957 183.698 311.387 182.375 312.432C181.053 313.477 179.133 314 176.615 314H168.167ZM171.527 311.152H176.775C178.119 311.152 179.122 310.875 179.783 310.32C180.466 309.765 180.807 308.987 180.807 307.984C180.807 306.981 180.466 306.203 179.783 305.648C179.122 305.093 178.119 304.816 176.775 304.816H171.527V311.152ZM171.527 301.968H176.231C178.919 301.968 180.263 300.933 180.263 298.864C180.263 296.795 178.919 295.76 176.231 295.76H171.527V301.968ZM195.819 297.68C197.376 297.68 198.752 298.011 199.947 298.672C201.141 299.333 202.069 300.293 202.731 301.552C203.413 302.789 203.755 304.272 203.755 306C203.755 307.728 203.413 309.221 202.731 310.48C202.069 311.717 201.141 312.667 199.947 313.328C198.752 313.989 197.376 314.32 195.819 314.32C194.261 314.32 192.885 313.989 191.691 313.328C190.496 312.667 189.557 311.717 188.875 310.48C188.192 309.221 187.851 307.728 187.851 306C187.851 304.272 188.192 302.789 188.875 301.552C189.557 300.293 190.496 299.333 191.691 298.672C192.885 298.011 194.261 297.68 195.819 297.68ZM195.819 300.368C194.859 300.368 194.037 300.592 193.355 301.04C192.693 301.467 192.181 302.096 191.819 302.928C191.456 303.76 191.275 304.784 191.275 306C191.275 307.195 191.456 308.219 191.819 309.072C192.181 309.904 192.693 310.544 193.355 310.992C194.037 311.419 194.859 311.632 195.819 311.632C196.779 311.632 197.589 311.419 198.251 310.992C198.912 310.544 199.424 309.904 199.787 309.072C200.149 308.219 200.331 307.195 200.331 306C200.331 304.784 200.149 303.76 199.787 302.928C199.424 302.096 198.912 301.467 198.251 301.04C197.589 300.592 196.779 300.368 195.819 300.368ZM208.062 314V298H210.974L211.294 300.88C211.721 299.835 212.35 299.045 213.182 298.512C214.036 297.957 215.081 297.68 216.318 297.68C216.638 297.68 216.958 297.712 217.278 297.776C217.598 297.819 217.865 297.893 218.078 298L217.598 301.008C217.364 300.923 217.097 300.859 216.798 300.816C216.521 300.752 216.137 300.72 215.646 300.72C214.985 300.72 214.334 300.901 213.694 301.264C213.054 301.605 212.521 302.128 212.094 302.832C211.689 303.536 211.486 304.432 211.486 305.52V314H208.062ZM221.312 314V298H224.352L224.576 302.16L224.128 301.712C224.427 300.795 224.854 300.037 225.408 299.44C225.984 298.821 226.656 298.373 227.424 298.096C228.214 297.819 229.046 297.68 229.92 297.68C231.051 297.68 232.064 297.904 232.96 298.352C233.878 298.779 234.603 299.429 235.136 300.304C235.67 301.179 235.936 302.288 235.936 303.632V314H232.512V304.688C232.512 303.109 232.182 302.021 231.52 301.424C230.88 300.805 230.07 300.496 229.088 300.496C228.384 300.496 227.702 300.667 227.04 301.008C226.379 301.328 225.824 301.851 225.376 302.576C224.95 303.301 224.736 304.272 224.736 305.488V314H221.312ZM253.259 295.312C252.512 295.312 251.936 295.131 251.531 294.768C251.147 294.384 250.955 293.851 250.955 293.168C250.955 292.485 251.147 291.963 251.531 291.6C251.936 291.237 252.512 291.056 253.259 291.056C253.984 291.056 254.539 291.237 254.923 291.6C255.328 291.963 255.531 292.485 255.531 293.168C255.531 293.851 255.328 294.384 254.923 294.768C254.539 295.131 253.984 295.312 253.259 295.312ZM254.955 298V314H251.531V298H254.955ZM260.312 314V298H263.352L263.576 302.16L263.128 301.712C263.427 300.795 263.854 300.037 264.408 299.44C264.984 298.821 265.656 298.373 266.424 298.096C267.214 297.819 268.046 297.68 268.92 297.68C270.051 297.68 271.064 297.904 271.96 298.352C272.878 298.779 273.603 299.429 274.136 300.304C274.67 301.179 274.936 302.288 274.936 303.632V314H271.512V304.688C271.512 303.109 271.182 302.021 270.52 301.424C269.88 300.805 269.07 300.496 268.088 300.496C267.384 300.496 266.702 300.667 266.04 301.008C265.379 301.328 264.824 301.851 264.376 302.576C263.95 303.301 263.736 304.272 263.736 305.488V314H260.312ZM299.107 314.32C298.168 314.32 297.304 314.139 296.515 313.776C295.747 313.413 295.096 312.912 294.563 312.272C294.03 311.611 293.635 310.875 293.379 310.064L293.795 309.52L293.539 314H290.531V290.8H293.955V302.032L293.571 301.488C293.976 300.379 294.67 299.472 295.651 298.768C296.632 298.043 297.816 297.68 299.203 297.68C300.483 297.68 301.656 298.011 302.723 298.672C303.811 299.333 304.664 300.283 305.283 301.52C305.902 302.757 306.211 304.261 306.211 306.032C306.211 307.76 305.891 309.243 305.251 310.48C304.632 311.717 303.779 312.667 302.691 313.328C301.624 313.989 300.43 314.32 299.107 314.32ZM298.371 311.568C299.758 311.568 300.835 311.077 301.603 310.096C302.392 309.093 302.787 307.728 302.787 306C302.787 304.272 302.403 302.917 301.635 301.936C300.867 300.955 299.79 300.464 298.403 300.464C297.507 300.464 296.728 300.699 296.067 301.168C295.406 301.616 294.883 302.256 294.499 303.088C294.136 303.92 293.955 304.912 293.955 306.064C293.955 307.195 294.136 308.176 294.499 309.008C294.862 309.819 295.374 310.448 296.035 310.896C296.718 311.344 297.496 311.568 298.371 311.568ZM310.594 314V298H313.506L313.826 300.88C314.252 299.835 314.882 299.045 315.714 298.512C316.567 297.957 317.612 297.68 318.85 297.68C319.17 297.68 319.49 297.712 319.81 297.776C320.13 297.819 320.396 297.893 320.61 298L320.13 301.008C319.895 300.923 319.628 300.859 319.33 300.816C319.052 300.752 318.668 300.72 318.178 300.72C317.516 300.72 316.866 300.901 316.226 301.264C315.586 301.605 315.052 302.128 314.626 302.832C314.22 303.536 314.018 304.432 314.018 305.52V314H310.594ZM332.748 303.728C332.748 302.661 332.449 301.84 331.852 301.264C331.276 300.667 330.476 300.368 329.452 300.368C328.492 300.368 327.67 300.592 326.988 301.04C326.305 301.488 325.804 302.213 325.484 303.216L322.604 302C323.009 300.699 323.798 299.653 324.972 298.864C326.166 298.075 327.702 297.68 329.58 297.68C330.86 297.68 331.99 297.893 332.972 298.32C333.953 298.725 334.721 299.344 335.276 300.176C335.852 301.008 336.14 302.075 336.14 303.376V310.512C336.14 311.301 336.534 311.696 337.324 311.696C337.708 311.696 338.081 311.643 338.444 311.536L338.252 313.904C337.761 314.139 337.142 314.256 336.396 314.256C335.713 314.256 335.094 314.139 334.54 313.904C334.006 313.648 333.58 313.275 333.26 312.784C332.961 312.272 332.812 311.643 332.812 310.896V310.672L333.516 310.64C333.324 311.472 332.929 312.165 332.332 312.72C331.734 313.253 331.041 313.659 330.252 313.936C329.462 314.192 328.662 314.32 327.852 314.32C326.849 314.32 325.942 314.16 325.132 313.84C324.342 313.52 323.713 313.04 323.244 312.4C322.796 311.739 322.572 310.928 322.572 309.968C322.572 308.773 322.956 307.792 323.724 307.024C324.513 306.256 325.622 305.733 327.052 305.456L333.26 304.24L333.228 306.64L328.716 307.568C327.82 307.739 327.148 307.984 326.7 308.304C326.252 308.624 326.028 309.093 326.028 309.712C326.028 310.309 326.252 310.789 326.7 311.152C327.169 311.493 327.788 311.664 328.556 311.664C329.089 311.664 329.601 311.6 330.092 311.472C330.604 311.344 331.062 311.141 331.468 310.864C331.873 310.565 332.182 310.192 332.396 309.744C332.63 309.275 332.748 308.72 332.748 308.08V303.728ZM341.75 314V298H344.79L345.014 302.16L344.566 301.712C344.864 300.795 345.291 300.037 345.846 299.44C346.422 298.821 347.094 298.373 347.862 298.096C348.651 297.819 349.483 297.68 350.358 297.68C351.488 297.68 352.502 297.904 353.398 298.352C354.315 298.779 355.04 299.429 355.574 300.304C356.107 301.179 356.374 302.288 356.374 303.632V314H352.95V304.688C352.95 303.109 352.619 302.021 351.958 301.424C351.318 300.805 350.507 300.496 349.526 300.496C348.822 300.496 348.139 300.667 347.478 301.008C346.816 301.328 346.262 301.851 345.814 302.576C345.387 303.301 345.174 304.272 345.174 305.488V314H341.75ZM367.706 314.32C366.384 314.32 365.178 313.989 364.09 313.328C363.024 312.667 362.181 311.717 361.562 310.48C360.944 309.243 360.634 307.76 360.634 306.032C360.634 304.24 360.965 302.725 361.626 301.488C362.288 300.251 363.173 299.312 364.282 298.672C365.392 298.011 366.608 297.68 367.93 297.68C369.296 297.68 370.448 298.053 371.386 298.8C372.325 299.547 372.954 300.517 373.274 301.712L372.89 302.064V290.8H376.314V314H373.274L373.018 309.648L373.466 309.68C373.317 310.64 372.965 311.472 372.41 312.176C371.856 312.859 371.162 313.392 370.33 313.776C369.52 314.139 368.645 314.32 367.706 314.32ZM368.442 311.568C369.36 311.568 370.149 311.333 370.81 310.864C371.472 310.395 371.984 309.733 372.346 308.88C372.709 308.027 372.89 307.003 372.89 305.808C372.89 304.699 372.709 303.749 372.346 302.96C371.984 302.149 371.472 301.531 370.81 301.104C370.17 300.677 369.424 300.464 368.57 300.464C367.141 300.464 366.032 300.955 365.242 301.936C364.453 302.917 364.058 304.272 364.058 306C364.058 307.728 364.442 309.093 365.21 310.096C365.978 311.077 367.056 311.568 368.442 311.568ZM172.424 322.576C173.086 322.576 173.683 322.651 174.216 322.8C174.771 322.928 175.187 323.109 175.464 323.344L174.824 325.808C174.59 325.659 174.323 325.552 174.024 325.488C173.726 325.403 173.384 325.36 173 325.36C172.126 325.36 171.432 325.563 170.92 325.968C170.43 326.373 170.184 327.035 170.184 327.952V330.288L170.28 331.152V346H166.856V327.696C166.856 326.885 166.974 326.16 167.208 325.52C167.464 324.88 167.838 324.347 168.328 323.92C168.819 323.472 169.406 323.141 170.088 322.928C170.792 322.693 171.571 322.576 172.424 322.576ZM175.368 330V332.688H163.848V330H175.368ZM184.149 346.32C183.104 346.32 182.133 346.128 181.237 345.744C180.362 345.36 179.658 344.741 179.125 343.888C178.592 343.035 178.325 341.925 178.325 340.56V330H181.749V339.696C181.749 341.147 182.058 342.149 182.677 342.704C183.296 343.237 184.16 343.504 185.269 343.504C185.802 343.504 186.314 343.419 186.805 343.248C187.317 343.056 187.776 342.768 188.181 342.384C188.586 341.979 188.896 341.467 189.109 340.848C189.344 340.229 189.461 339.504 189.461 338.672V330H192.885V346H189.877L189.717 343.408C189.162 344.411 188.416 345.147 187.477 345.616C186.538 346.085 185.429 346.32 184.149 346.32ZM198.234 346V330H201.274L201.498 334.16L201.05 333.712C201.349 332.795 201.775 332.037 202.33 331.44C202.906 330.821 203.578 330.373 204.346 330.096C205.135 329.819 205.967 329.68 206.842 329.68C207.973 329.68 208.986 329.904 209.882 330.352C210.799 330.779 211.525 331.429 212.058 332.304C212.591 333.179 212.858 334.288 212.858 335.632V346H209.434V336.688C209.434 335.109 209.103 334.021 208.442 333.424C207.802 332.805 206.991 332.496 206.01 332.496C205.306 332.496 204.623 332.667 203.962 333.008C203.301 333.328 202.746 333.851 202.298 334.576C201.871 335.301 201.658 336.272 201.658 337.488V346H198.234ZM224.191 346.32C222.868 346.32 221.663 345.989 220.575 345.328C219.508 344.667 218.665 343.717 218.047 342.48C217.428 341.243 217.119 339.76 217.119 338.032C217.119 336.24 217.449 334.725 218.111 333.488C218.772 332.251 219.657 331.312 220.767 330.672C221.876 330.011 223.092 329.68 224.415 329.68C225.78 329.68 226.932 330.053 227.871 330.8C228.809 331.547 229.439 332.517 229.759 333.712L229.375 334.064V322.8H232.799V346H229.759L229.503 341.648L229.951 341.68C229.801 342.64 229.449 343.472 228.895 344.176C228.34 344.859 227.647 345.392 226.815 345.776C226.004 346.139 225.129 346.32 224.191 346.32ZM224.927 343.568C225.844 343.568 226.633 343.333 227.295 342.864C227.956 342.395 228.468 341.733 228.831 340.88C229.193 340.027 229.375 339.003 229.375 337.808C229.375 336.699 229.193 335.749 228.831 334.96C228.468 334.149 227.956 333.531 227.295 333.104C226.655 332.677 225.908 332.464 225.055 332.464C223.625 332.464 222.516 332.955 221.727 333.936C220.937 334.917 220.543 336.272 220.543 338C220.543 339.728 220.927 341.093 221.695 342.096C222.463 343.077 223.54 343.568 224.927 343.568ZM247.357 335.728C247.357 334.661 247.058 333.84 246.461 333.264C245.885 332.667 245.085 332.368 244.061 332.368C243.101 332.368 242.28 332.592 241.597 333.04C240.914 333.488 240.413 334.213 240.093 335.216L237.213 334C237.618 332.699 238.408 331.653 239.581 330.864C240.776 330.075 242.312 329.68 244.189 329.68C245.469 329.68 246.6 329.893 247.581 330.32C248.562 330.725 249.33 331.344 249.885 332.176C250.461 333.008 250.749 334.075 250.749 335.376V342.512C250.749 343.301 251.144 343.696 251.933 343.696C252.317 343.696 252.69 343.643 253.053 343.536L252.861 345.904C252.37 346.139 251.752 346.256 251.005 346.256C250.322 346.256 249.704 346.139 249.149 345.904C248.616 345.648 248.189 345.275 247.869 344.784C247.57 344.272 247.421 343.643 247.421 342.896V342.672L248.125 342.64C247.933 343.472 247.538 344.165 246.941 344.72C246.344 345.253 245.65 345.659 244.861 345.936C244.072 346.192 243.272 346.32 242.461 346.32C241.458 346.32 240.552 346.16 239.741 345.84C238.952 345.52 238.322 345.04 237.853 344.4C237.405 343.739 237.181 342.928 237.181 341.968C237.181 340.773 237.565 339.792 238.333 339.024C239.122 338.256 240.232 337.733 241.661 337.456L247.869 336.24L247.837 338.64L243.325 339.568C242.429 339.739 241.757 339.984 241.309 340.304C240.861 340.624 240.637 341.093 240.637 341.712C240.637 342.309 240.861 342.789 241.309 343.152C241.778 343.493 242.397 343.664 243.165 343.664C243.698 343.664 244.21 343.6 244.701 343.472C245.213 343.344 245.672 343.141 246.077 342.864C246.482 342.565 246.792 342.192 247.005 341.744C247.24 341.275 247.357 340.72 247.357 340.08V335.728ZM256.359 346V330H259.399L259.559 332.688C260.114 331.664 260.85 330.907 261.767 330.416C262.706 329.925 263.698 329.68 264.743 329.68C265.895 329.68 266.951 329.947 267.911 330.48C268.892 330.992 269.628 331.771 270.119 332.816C270.46 332.112 270.93 331.525 271.527 331.056C272.124 330.587 272.786 330.245 273.511 330.032C274.236 329.797 274.951 329.68 275.655 329.68C276.679 329.68 277.639 329.893 278.535 330.32C279.431 330.747 280.156 331.397 280.711 332.272C281.266 333.147 281.543 334.267 281.543 335.632V346H278.119V336.176C278.119 334.875 277.81 333.936 277.191 333.36C276.572 332.784 275.783 332.496 274.823 332.496C274.076 332.496 273.383 332.677 272.743 333.04C272.124 333.403 271.623 333.947 271.239 334.672C270.855 335.376 270.663 336.251 270.663 337.296V346H267.239V336.176C267.239 334.875 266.93 333.936 266.311 333.36C265.692 332.784 264.903 332.496 263.943 332.496C263.303 332.496 262.663 332.667 262.023 333.008C261.383 333.349 260.85 333.883 260.423 334.608C259.996 335.333 259.783 336.293 259.783 337.488V346H256.359ZM293.774 346.32C292.174 346.32 290.766 345.989 289.55 345.328C288.334 344.667 287.385 343.717 286.702 342.48C286.041 341.221 285.71 339.728 285.71 338C285.71 336.272 286.041 334.789 286.702 333.552C287.385 332.293 288.323 331.333 289.518 330.672C290.713 330.011 292.067 329.68 293.582 329.68C295.139 329.68 296.462 330 297.55 330.64C298.638 331.28 299.47 332.155 300.046 333.264C300.622 334.373 300.91 335.632 300.91 337.04C300.91 337.424 300.899 337.787 300.878 338.128C300.857 338.469 300.825 338.768 300.782 339.024H287.918V336.4H299.278L297.582 336.912C297.582 335.461 297.219 334.352 296.494 333.584C295.769 332.795 294.777 332.4 293.518 332.4C292.601 332.4 291.801 332.613 291.118 333.04C290.435 333.467 289.913 334.107 289.55 334.96C289.187 335.792 289.006 336.816 289.006 338.032C289.006 339.227 289.198 340.24 289.582 341.072C289.966 341.904 290.51 342.533 291.214 342.96C291.918 343.387 292.75 343.6 293.71 343.6C294.777 343.6 295.641 343.397 296.302 342.992C296.963 342.587 297.486 342.021 297.87 341.296L300.59 342.576C300.206 343.344 299.683 344.016 299.022 344.592C298.382 345.147 297.614 345.573 296.718 345.872C295.822 346.171 294.841 346.32 293.774 346.32ZM305.234 346V330H308.274L308.498 334.16L308.05 333.712C308.349 332.795 308.775 332.037 309.33 331.44C309.906 330.821 310.578 330.373 311.346 330.096C312.135 329.819 312.967 329.68 313.842 329.68C314.973 329.68 315.986 329.904 316.882 330.352C317.799 330.779 318.525 331.429 319.058 332.304C319.591 333.179 319.858 334.288 319.858 335.632V346H316.434V336.688C316.434 335.109 316.103 334.021 315.442 333.424C314.802 332.805 313.991 332.496 313.01 332.496C312.306 332.496 311.623 332.667 310.962 333.008C310.301 333.328 309.746 333.851 309.298 334.576C308.871 335.301 308.658 336.272 308.658 337.488V346H305.234ZM329.531 325.296V341.2C329.531 341.989 329.734 342.565 330.139 342.928C330.566 343.291 331.131 343.472 331.835 343.472C332.411 343.472 332.912 343.387 333.339 343.216C333.766 343.024 334.16 342.768 334.523 342.448L335.291 344.944C334.8 345.371 334.192 345.712 333.467 345.968C332.763 346.203 331.974 346.32 331.099 346.32C330.182 346.32 329.339 346.171 328.571 345.872C327.803 345.573 327.206 345.093 326.779 344.432C326.352 343.749 326.128 342.864 326.107 341.776V326.256L329.531 325.296ZM335.035 330V332.688H323.035V330H335.035ZM347.763 335.728C347.763 334.661 347.465 333.84 346.867 333.264C346.291 332.667 345.491 332.368 344.467 332.368C343.507 332.368 342.686 332.592 342.003 333.04C341.321 333.488 340.819 334.213 340.499 335.216L337.619 334C338.025 332.699 338.814 331.653 339.987 330.864C341.182 330.075 342.718 329.68 344.595 329.68C345.875 329.68 347.006 329.893 347.987 330.32C348.969 330.725 349.737 331.344 350.291 332.176C350.867 333.008 351.155 334.075 351.155 335.376V342.512C351.155 343.301 351.55 343.696 352.339 343.696C352.723 343.696 353.097 343.643 353.459 343.536L353.267 345.904C352.777 346.139 352.158 346.256 351.411 346.256C350.729 346.256 350.11 346.139 349.555 345.904C349.022 345.648 348.595 345.275 348.275 344.784C347.977 344.272 347.827 343.643 347.827 342.896V342.672L348.531 342.64C348.339 343.472 347.945 344.165 347.347 344.72C346.75 345.253 346.057 345.659 345.267 345.936C344.478 346.192 343.678 346.32 342.867 346.32C341.865 346.32 340.958 346.16 340.147 345.84C339.358 345.52 338.729 345.04 338.259 344.4C337.811 343.739 337.587 342.928 337.587 341.968C337.587 340.773 337.971 339.792 338.739 339.024C339.529 338.256 340.638 337.733 342.067 337.456L348.275 336.24L348.243 338.64L343.731 339.568C342.835 339.739 342.163 339.984 341.715 340.304C341.267 340.624 341.043 341.093 341.043 341.712C341.043 342.309 341.267 342.789 341.715 343.152C342.185 343.493 342.803 343.664 343.571 343.664C344.105 343.664 344.617 343.6 345.107 343.472C345.619 343.344 346.078 343.141 346.483 342.864C346.889 342.565 347.198 342.192 347.411 341.744C347.646 341.275 347.763 340.72 347.763 340.08V335.728ZM360.093 322.8V341.52C360.093 342.309 360.232 342.853 360.509 343.152C360.787 343.451 361.245 343.6 361.885 343.6C362.269 343.6 362.589 343.579 362.845 343.536C363.123 343.472 363.464 343.365 363.869 343.216L363.485 345.776C363.123 345.947 362.707 346.075 362.237 346.16C361.768 346.267 361.299 346.32 360.829 346.32C359.4 346.32 358.344 345.957 357.661 345.232C357 344.485 356.669 343.344 356.669 341.808V322.8H360.093ZM372.814 346.32C371.214 346.32 369.753 346.011 368.43 345.392C367.107 344.773 366.062 343.899 365.294 342.768L367.662 340.72C368.131 341.595 368.803 342.299 369.678 342.832C370.574 343.344 371.641 343.6 372.878 343.6C373.859 343.6 374.638 343.429 375.214 343.088C375.79 342.747 376.078 342.267 376.078 341.648C376.078 341.243 375.939 340.891 375.662 340.592C375.406 340.272 374.905 340.027 374.158 339.856L370.798 339.152C369.091 338.811 367.875 338.267 367.15 337.52C366.425 336.752 366.062 335.781 366.062 334.608C366.062 333.733 366.318 332.923 366.83 332.176C367.342 331.429 368.089 330.832 369.07 330.384C370.073 329.915 371.267 329.68 372.654 329.68C374.254 329.68 375.619 329.968 376.75 330.544C377.881 331.099 378.745 331.899 379.342 332.944L376.974 334.928C376.569 334.075 375.971 333.445 375.182 333.04C374.393 332.613 373.571 332.4 372.718 332.4C372.035 332.4 371.449 332.485 370.958 332.656C370.467 332.827 370.094 333.061 369.838 333.36C369.582 333.659 369.454 334.011 369.454 334.416C369.454 334.843 369.614 335.216 369.934 335.536C370.254 335.856 370.83 336.101 371.662 336.272L375.31 337.04C376.846 337.339 377.923 337.851 378.542 338.576C379.182 339.28 379.502 340.144 379.502 341.168C379.502 342.192 379.235 343.099 378.702 343.888C378.169 344.656 377.401 345.253 376.398 345.68C375.395 346.107 374.201 346.32 372.814 346.32Z" fill="black"/>
<path d="M813.806 314.32C811.822 314.32 810.104 313.883 808.654 313.008C807.203 312.133 806.072 310.896 805.262 309.296C804.451 307.675 804.046 305.723 804.046 303.44C804.046 301.2 804.462 299.269 805.294 297.648C806.147 296.027 807.342 294.779 808.878 293.904C810.435 293.008 812.216 292.56 814.222 292.56C816.419 292.56 818.19 292.965 819.534 293.776C820.899 294.587 821.987 295.845 822.798 297.552L819.63 299.056C819.224 297.883 818.552 297.008 817.614 296.432C816.696 295.835 815.576 295.536 814.254 295.536C812.931 295.536 811.768 295.845 810.766 296.464C809.784 297.083 809.016 297.989 808.462 299.184C807.907 300.357 807.63 301.776 807.63 303.44C807.63 305.125 807.875 306.565 808.366 307.76C808.856 308.933 809.592 309.829 810.574 310.448C811.576 311.067 812.803 311.376 814.254 311.376C815.043 311.376 815.779 311.28 816.462 311.088C817.144 310.875 817.742 310.576 818.254 310.192C818.766 309.787 819.16 309.285 819.438 308.688C819.736 308.069 819.886 307.344 819.886 306.512V305.904H813.742V303.12H822.926V314H820.366L820.174 309.744L820.814 310.064C820.302 311.408 819.448 312.453 818.254 313.2C817.08 313.947 815.598 314.32 813.806 314.32ZM833.602 314.32C832.557 314.32 831.586 314.128 830.69 313.744C829.815 313.36 829.111 312.741 828.578 311.888C828.045 311.035 827.778 309.925 827.778 308.56V298H831.202V307.696C831.202 309.147 831.511 310.149 832.13 310.704C832.749 311.237 833.613 311.504 834.722 311.504C835.255 311.504 835.767 311.419 836.258 311.248C836.77 311.056 837.229 310.768 837.634 310.384C838.039 309.979 838.349 309.467 838.562 308.848C838.797 308.229 838.914 307.504 838.914 306.672V298H842.338V314H839.33L839.17 311.408C838.615 312.411 837.869 313.147 836.93 313.616C835.991 314.085 834.882 314.32 833.602 314.32ZM849.415 295.312C848.669 295.312 848.093 295.131 847.687 294.768C847.303 294.384 847.111 293.851 847.111 293.168C847.111 292.485 847.303 291.963 847.687 291.6C848.093 291.237 848.669 291.056 849.415 291.056C850.141 291.056 850.695 291.237 851.079 291.6C851.485 291.963 851.687 292.485 851.687 293.168C851.687 293.851 851.485 294.384 851.079 294.768C850.695 295.131 850.141 295.312 849.415 295.312ZM851.111 298V314H847.687V298H851.111ZM862.613 314.32C861.29 314.32 860.085 313.989 858.997 313.328C857.93 312.667 857.087 311.717 856.469 310.48C855.85 309.243 855.541 307.76 855.541 306.032C855.541 304.24 855.871 302.725 856.533 301.488C857.194 300.251 858.079 299.312 859.189 298.672C860.298 298.011 861.514 297.68 862.837 297.68C864.202 297.68 865.354 298.053 866.293 298.8C867.231 299.547 867.861 300.517 868.181 301.712L867.797 302.064V290.8H871.221V314H868.181L867.925 309.648L868.373 309.68C868.223 310.64 867.871 311.472 867.317 312.176C866.762 312.859 866.069 313.392 865.237 313.776C864.426 314.139 863.551 314.32 862.613 314.32ZM863.349 311.568C864.266 311.568 865.055 311.333 865.717 310.864C866.378 310.395 866.89 309.733 867.253 308.88C867.615 308.027 867.797 307.003 867.797 305.808C867.797 304.699 867.615 303.749 867.253 302.96C866.89 302.149 866.378 301.531 865.717 301.104C865.077 300.677 864.33 300.464 863.477 300.464C862.047 300.464 860.938 300.955 860.149 301.936C859.359 302.917 858.965 304.272 858.965 306C858.965 307.728 859.349 309.093 860.117 310.096C860.885 311.077 861.962 311.568 863.349 311.568ZM883.571 314.32C881.971 314.32 880.563 313.989 879.347 313.328C878.131 312.667 877.182 311.717 876.499 310.48C875.838 309.221 875.507 307.728 875.507 306C875.507 304.272 875.838 302.789 876.499 301.552C877.182 300.293 878.12 299.333 879.315 298.672C880.51 298.011 881.864 297.68 883.379 297.68C884.936 297.68 886.259 298 887.347 298.64C888.435 299.28 889.267 300.155 889.843 301.264C890.419 302.373 890.707 303.632 890.707 305.04C890.707 305.424 890.696 305.787 890.675 306.128C890.654 306.469 890.622 306.768 890.579 307.024H877.715V304.4H889.075L887.379 304.912C887.379 303.461 887.016 302.352 886.291 301.584C885.566 300.795 884.574 300.4 883.315 300.4C882.398 300.4 881.598 300.613 880.915 301.04C880.232 301.467 879.71 302.107 879.347 302.96C878.984 303.792 878.803 304.816 878.803 306.032C878.803 307.227 878.995 308.24 879.379 309.072C879.763 309.904 880.307 310.533 881.011 310.96C881.715 311.387 882.547 311.6 883.507 311.6C884.574 311.6 885.438 311.397 886.099 310.992C886.76 310.587 887.283 310.021 887.667 309.296L890.387 310.576C890.003 311.344 889.48 312.016 888.819 312.592C888.179 313.147 887.411 313.573 886.515 313.872C885.619 314.171 884.638 314.32 883.571 314.32ZM901.175 314.32C899.852 314.32 898.647 313.989 897.559 313.328C896.492 312.667 895.65 311.717 895.031 310.48C894.412 309.243 894.103 307.76 894.103 306.032C894.103 304.24 894.434 302.725 895.095 301.488C895.756 300.251 896.642 299.312 897.751 298.672C898.86 298.011 900.076 297.68 901.399 297.68C902.764 297.68 903.916 298.053 904.855 298.8C905.794 299.547 906.423 300.517 906.743 301.712L906.359 302.064V290.8H909.783V314H906.743L906.487 309.648L906.935 309.68C906.786 310.64 906.434 311.472 905.879 312.176C905.324 312.859 904.631 313.392 903.799 313.776C902.988 314.139 902.114 314.32 901.175 314.32ZM901.911 311.568C902.828 311.568 903.618 311.333 904.279 310.864C904.94 310.395 905.452 309.733 905.815 308.88C906.178 308.027 906.359 307.003 906.359 305.808C906.359 304.699 906.178 303.749 905.815 302.96C905.452 302.149 904.94 301.531 904.279 301.104C903.639 300.677 902.892 300.464 902.039 300.464C900.61 300.464 899.5 300.955 898.711 301.936C897.922 302.917 897.527 304.272 897.527 306C897.527 307.728 897.911 309.093 898.679 310.096C899.447 311.077 900.524 311.568 901.911 311.568ZM934.076 314.32C933.137 314.32 932.273 314.139 931.484 313.776C930.716 313.413 930.065 312.912 929.532 312.272C928.998 311.611 928.604 310.875 928.348 310.064L928.764 309.52L928.508 314H925.5V290.8H928.924V302.032L928.54 301.488C928.945 300.379 929.638 299.472 930.62 298.768C931.601 298.043 932.785 297.68 934.172 297.68C935.452 297.68 936.625 298.011 937.692 298.672C938.78 299.333 939.633 300.283 940.252 301.52C940.87 302.757 941.18 304.261 941.18 306.032C941.18 307.76 940.86 309.243 940.22 310.48C939.601 311.717 938.748 312.667 937.66 313.328C936.593 313.989 935.398 314.32 934.076 314.32ZM933.34 311.568C934.726 311.568 935.804 311.077 936.572 310.096C937.361 309.093 937.756 307.728 937.756 306C937.756 304.272 937.372 302.917 936.604 301.936C935.836 300.955 934.758 300.464 933.372 300.464C932.476 300.464 931.697 300.699 931.036 301.168C930.374 301.616 929.852 302.256 929.468 303.088C929.105 303.92 928.924 304.912 928.924 306.064C928.924 307.195 929.105 308.176 929.468 309.008C929.83 309.819 930.342 310.448 931.004 310.896C931.686 311.344 932.465 311.568 933.34 311.568ZM959.017 298L952.009 315.888C951.539 317.125 951.027 318.107 950.473 318.832C949.939 319.557 949.321 320.08 948.617 320.4C947.913 320.72 947.091 320.88 946.153 320.88C945.385 320.88 944.67 320.773 944.009 320.56C943.369 320.368 942.803 320.101 942.312 319.76L943.145 317.104C943.55 317.445 943.977 317.701 944.424 317.872C944.894 318.043 945.395 318.128 945.929 318.128C946.505 318.128 947.017 317.968 947.465 317.648C947.934 317.349 948.35 316.741 948.713 315.824L949.417 314.096L947.721 310.128L942.729 298H946.569L950.121 308.048L951.049 311.056L952.105 307.76L955.465 298H959.017ZM769.783 346.32C768.183 346.32 766.722 346.011 765.399 345.392C764.076 344.773 763.031 343.899 762.263 342.768L764.631 340.72C765.1 341.595 765.772 342.299 766.647 342.832C767.543 343.344 768.61 343.6 769.847 343.6C770.828 343.6 771.607 343.429 772.183 343.088C772.759 342.747 773.047 342.267 773.047 341.648C773.047 341.243 772.908 340.891 772.631 340.592C772.375 340.272 771.874 340.027 771.127 339.856L767.767 339.152C766.06 338.811 764.844 338.267 764.119 337.52C763.394 336.752 763.031 335.781 763.031 334.608C763.031 333.733 763.287 332.923 763.799 332.176C764.311 331.429 765.058 330.832 766.039 330.384C767.042 329.915 768.236 329.68 769.623 329.68C771.223 329.68 772.588 329.968 773.719 330.544C774.85 331.099 775.714 331.899 776.311 332.944L773.943 334.928C773.538 334.075 772.94 333.445 772.151 333.04C771.362 332.613 770.54 332.4 769.687 332.4C769.004 332.4 768.418 332.485 767.927 332.656C767.436 332.827 767.063 333.061 766.807 333.36C766.551 333.659 766.423 334.011 766.423 334.416C766.423 334.843 766.583 335.216 766.903 335.536C767.223 335.856 767.799 336.101 768.631 336.272L772.279 337.04C773.815 337.339 774.892 337.851 775.511 338.576C776.151 339.28 776.471 340.144 776.471 341.168C776.471 342.192 776.204 343.099 775.671 343.888C775.138 344.656 774.37 345.253 773.367 345.68C772.364 346.107 771.17 346.32 769.783 346.32ZM785.312 325.296V341.2C785.312 341.989 785.515 342.565 785.92 342.928C786.347 343.291 786.912 343.472 787.616 343.472C788.192 343.472 788.694 343.387 789.12 343.216C789.547 343.024 789.942 342.768 790.304 342.448L791.072 344.944C790.582 345.371 789.974 345.712 789.248 345.968C788.544 346.203 787.755 346.32 786.88 346.32C785.963 346.32 785.12 346.171 784.352 345.872C783.584 345.573 782.987 345.093 782.56 344.432C782.134 343.749 781.91 342.864 781.888 341.776V326.256L785.312 325.296ZM790.816 330V332.688H778.816V330H790.816ZM794.203 346V330H797.115L797.435 332.88C797.862 331.835 798.491 331.045 799.323 330.512C800.176 329.957 801.222 329.68 802.459 329.68C802.779 329.68 803.099 329.712 803.419 329.776C803.739 329.819 804.006 329.893 804.219 330L803.739 333.008C803.504 332.923 803.238 332.859 802.939 332.816C802.662 332.752 802.278 332.72 801.787 332.72C801.126 332.72 800.475 332.901 799.835 333.264C799.195 333.605 798.662 334.128 798.235 334.832C797.83 335.536 797.627 336.432 797.627 337.52V346H794.203ZM816.357 335.728C816.357 334.661 816.058 333.84 815.461 333.264C814.885 332.667 814.085 332.368 813.061 332.368C812.101 332.368 811.28 332.592 810.597 333.04C809.914 333.488 809.413 334.213 809.093 335.216L806.213 334C806.618 332.699 807.408 331.653 808.581 330.864C809.776 330.075 811.312 329.68 813.189 329.68C814.469 329.68 815.6 329.893 816.581 330.32C817.562 330.725 818.33 331.344 818.885 332.176C819.461 333.008 819.749 334.075 819.749 335.376V342.512C819.749 343.301 820.144 343.696 820.933 343.696C821.317 343.696 821.69 343.643 822.053 343.536L821.861 345.904C821.37 346.139 820.752 346.256 820.005 346.256C819.322 346.256 818.704 346.139 818.149 345.904C817.616 345.648 817.189 345.275 816.869 344.784C816.57 344.272 816.421 343.643 816.421 342.896V342.672L817.125 342.64C816.933 343.472 816.538 344.165 815.941 344.72C815.344 345.253 814.65 345.659 813.861 345.936C813.072 346.192 812.272 346.32 811.461 346.32C810.458 346.32 809.552 346.16 808.741 345.84C807.952 345.52 807.322 345.04 806.853 344.4C806.405 343.739 806.181 342.928 806.181 341.968C806.181 340.773 806.565 339.792 807.333 339.024C808.122 338.256 809.232 337.733 810.661 337.456L816.869 336.24L816.837 338.64L812.325 339.568C811.429 339.739 810.757 339.984 810.309 340.304C809.861 340.624 809.637 341.093 809.637 341.712C809.637 342.309 809.861 342.789 810.309 343.152C810.778 343.493 811.397 343.664 812.165 343.664C812.698 343.664 813.21 343.6 813.701 343.472C814.213 343.344 814.672 343.141 815.077 342.864C815.482 342.565 815.792 342.192 816.005 341.744C816.24 341.275 816.357 340.72 816.357 340.08V335.728ZM829.406 325.296V341.2C829.406 341.989 829.609 342.565 830.014 342.928C830.441 343.291 831.006 343.472 831.71 343.472C832.286 343.472 832.787 343.387 833.214 343.216C833.641 343.024 834.035 342.768 834.398 342.448L835.166 344.944C834.675 345.371 834.067 345.712 833.342 345.968C832.638 346.203 831.849 346.32 830.974 346.32C830.057 346.32 829.214 346.171 828.446 345.872C827.678 345.573 827.081 345.093 826.654 344.432C826.227 343.749 826.003 342.864 825.982 341.776V326.256L829.406 325.296ZM834.91 330V332.688H822.91V330H834.91ZM845.337 346.32C843.737 346.32 842.329 345.989 841.113 345.328C839.897 344.667 838.947 343.717 838.265 342.48C837.603 341.221 837.273 339.728 837.273 338C837.273 336.272 837.603 334.789 838.265 333.552C838.947 332.293 839.886 331.333 841.081 330.672C842.275 330.011 843.63 329.68 845.145 329.68C846.702 329.68 848.025 330 849.113 330.64C850.201 331.28 851.033 332.155 851.609 333.264C852.185 334.373 852.473 335.632 852.473 337.04C852.473 337.424 852.462 337.787 852.441 338.128C852.419 338.469 852.387 338.768 852.345 339.024H839.481V336.4H850.841L849.145 336.912C849.145 335.461 848.782 334.352 848.057 333.584C847.331 332.795 846.339 332.4 845.081 332.4C844.163 332.4 843.363 332.613 842.681 333.04C841.998 333.467 841.475 334.107 841.113 334.96C840.75 335.792 840.569 336.816 840.569 338.032C840.569 339.227 840.761 340.24 841.145 341.072C841.529 341.904 842.073 342.533 842.777 342.96C843.481 343.387 844.313 343.6 845.273 343.6C846.339 343.6 847.203 343.397 847.865 342.992C848.526 342.587 849.049 342.021 849.433 341.296L852.153 342.576C851.769 343.344 851.246 344.016 850.585 344.592C849.945 345.147 849.177 345.573 848.281 345.872C847.385 346.171 846.403 346.32 845.337 346.32ZM870.877 326.64L871.421 329.328C871.357 329.328 871.293 329.328 871.229 329.328C871.165 329.307 871.101 329.296 871.037 329.296C870.013 329.296 869.234 329.52 868.701 329.968C868.167 330.395 867.901 331.024 867.901 331.856L866.237 331.088C866.237 330.235 866.418 329.477 866.781 328.816C867.143 328.133 867.655 327.6 868.317 327.216C868.999 326.832 869.767 326.64 870.621 326.64C870.663 326.64 870.706 326.64 870.749 326.64C870.791 326.64 870.834 326.64 870.877 326.64ZM865.821 343.504C867.442 343.504 868.701 343.867 869.597 344.592C870.493 345.296 870.941 346.277 870.941 347.536C870.941 348.645 870.589 349.595 869.885 350.384C869.181 351.195 868.221 351.813 867.005 352.24C865.81 352.667 864.434 352.88 862.877 352.88C860.253 352.88 858.311 352.475 857.053 351.664C855.794 350.853 855.165 349.84 855.165 348.624C855.165 347.771 855.463 347.024 856.061 346.384C856.679 345.744 857.714 345.381 859.165 345.296L858.973 345.808C858.077 345.616 857.351 345.275 856.797 344.784C856.263 344.272 855.997 343.557 855.997 342.64C855.997 341.723 856.349 340.944 857.053 340.304C857.757 339.664 858.749 339.291 860.029 339.184L861.821 340.048H861.437C860.455 340.133 859.762 340.357 859.357 340.72C858.951 341.083 858.749 341.488 858.749 341.936C858.749 342.469 858.941 342.864 859.325 343.12C859.73 343.376 860.295 343.504 861.021 343.504H865.821ZM862.877 350.32C864.05 350.32 865.01 350.203 865.757 349.968C866.525 349.755 867.09 349.467 867.453 349.104C867.837 348.763 868.029 348.379 868.029 347.952C868.029 347.461 867.826 347.067 867.421 346.768C867.037 346.469 866.333 346.32 865.309 346.32H860.157C859.559 346.32 859.058 346.469 858.653 346.768C858.247 347.088 858.045 347.515 858.045 348.048C858.045 348.752 858.471 349.307 859.325 349.712C860.178 350.117 861.362 350.32 862.877 350.32ZM862.749 329.68C864.157 329.68 865.373 329.904 866.397 330.352C867.442 330.8 868.242 331.429 868.797 332.24C869.373 333.051 869.661 334 869.661 335.088C869.661 336.176 869.373 337.125 868.797 337.936C868.242 338.747 867.442 339.376 866.397 339.824C865.373 340.272 864.157 340.496 862.749 340.496C860.53 340.496 858.823 340.005 857.629 339.024C856.455 338.021 855.869 336.709 855.869 335.088C855.869 334 856.157 333.051 856.733 332.24C857.309 331.429 858.109 330.8 859.133 330.352C860.178 329.904 861.383 329.68 862.749 329.68ZM862.749 332.08C861.767 332.08 860.946 332.357 860.285 332.912C859.645 333.445 859.325 334.171 859.325 335.088C859.325 336.005 859.645 336.741 860.285 337.296C860.946 337.851 861.767 338.128 862.749 338.128C863.751 338.128 864.573 337.851 865.213 337.296C865.874 336.741 866.205 336.005 866.205 335.088C866.205 334.171 865.874 333.445 865.213 332.912C864.573 332.357 863.751 332.08 862.749 332.08ZM875.806 327.312C875.059 327.312 874.483 327.131 874.078 326.768C873.694 326.384 873.502 325.851 873.502 325.168C873.502 324.485 873.694 323.963 874.078 323.6C874.483 323.237 875.059 323.056 875.806 323.056C876.531 323.056 877.086 323.237 877.47 323.6C877.875 323.963 878.078 324.485 878.078 325.168C878.078 325.851 877.875 326.384 877.47 326.768C877.086 327.131 876.531 327.312 875.806 327.312ZM877.502 330V346H874.078V330H877.502ZM889.771 329.68C891.051 329.68 892.139 329.872 893.035 330.256C893.952 330.619 894.72 331.141 895.339 331.824C895.958 332.507 896.427 333.285 896.747 334.16L893.515 335.44C893.238 334.459 892.79 333.712 892.171 333.2C891.574 332.667 890.784 332.4 889.803 332.4C888.843 332.4 888.022 332.624 887.339 333.072C886.656 333.499 886.134 334.128 885.771 334.96C885.43 335.792 885.259 336.816 885.259 338.032C885.259 339.227 885.44 340.24 885.803 341.072C886.166 341.904 886.688 342.533 887.371 342.96C888.054 343.387 888.864 343.6 889.803 343.6C890.528 343.6 891.158 343.483 891.691 343.248C892.224 342.992 892.662 342.64 893.003 342.192C893.366 341.723 893.611 341.157 893.739 340.496L896.843 341.552C896.544 342.512 896.075 343.355 895.435 344.08C894.816 344.784 894.038 345.339 893.099 345.744C892.16 346.128 891.083 346.32 889.867 346.32C888.288 346.32 886.891 345.989 885.675 345.328C884.459 344.667 883.51 343.717 882.827 342.48C882.166 341.221 881.835 339.728 881.835 338C881.835 336.272 882.166 334.789 882.827 333.552C883.51 332.293 884.448 331.333 885.643 330.672C886.859 330.011 888.235 329.68 889.771 329.68ZM917.378 346.32C916.055 346.32 914.85 345.989 913.762 345.328C912.695 344.667 911.853 343.717 911.234 342.48C910.615 341.243 910.306 339.76 910.306 338.032C910.306 336.24 910.637 334.725 911.298 333.488C911.959 332.251 912.845 331.312 913.954 330.672C915.063 330.011 916.279 329.68 917.602 329.68C918.967 329.68 920.119 330.053 921.058 330.8C921.997 331.547 922.626 332.517 922.946 333.712L922.562 334.064V322.8H925.986V346H922.946L922.69 341.648L923.138 341.68C922.989 342.64 922.637 343.472 922.082 344.176C921.527 344.859 920.834 345.392 920.002 345.776C919.191 346.139 918.317 346.32 917.378 346.32ZM918.114 343.568C919.031 343.568 919.821 343.333 920.482 342.864C921.143 342.395 921.655 341.733 922.018 340.88C922.381 340.027 922.562 339.003 922.562 337.808C922.562 336.699 922.381 335.749 922.018 334.96C921.655 334.149 921.143 333.531 920.482 333.104C919.842 332.677 919.095 332.464 918.242 332.464C916.813 332.464 915.703 332.955 914.914 333.936C914.125 334.917 913.73 336.272 913.73 338C913.73 339.728 914.114 341.093 914.882 342.096C915.65 343.077 916.727 343.568 918.114 343.568ZM938.337 346.32C936.737 346.32 935.329 345.989 934.113 345.328C932.897 344.667 931.947 343.717 931.265 342.48C930.603 341.221 930.273 339.728 930.273 338C930.273 336.272 930.603 334.789 931.265 333.552C931.947 332.293 932.886 331.333 934.081 330.672C935.275 330.011 936.63 329.68 938.145 329.68C939.702 329.68 941.025 330 942.113 330.64C943.201 331.28 944.033 332.155 944.609 333.264C945.185 334.373 945.473 335.632 945.473 337.04C945.473 337.424 945.462 337.787 945.441 338.128C945.419 338.469 945.387 338.768 945.345 339.024H932.481V336.4H943.841L942.145 336.912C942.145 335.461 941.782 334.352 941.057 333.584C940.331 332.795 939.339 332.4 938.081 332.4C937.163 332.4 936.363 332.613 935.681 333.04C934.998 333.467 934.475 334.107 934.113 334.96C933.75 335.792 933.569 336.816 933.569 338.032C933.569 339.227 933.761 340.24 934.145 341.072C934.529 341.904 935.073 342.533 935.777 342.96C936.481 343.387 937.313 343.6 938.273 343.6C939.339 343.6 940.203 343.397 940.865 342.992C941.526 342.587 942.049 342.021 942.433 341.296L945.153 342.576C944.769 343.344 944.246 344.016 943.585 344.592C942.945 345.147 942.177 345.573 941.281 345.872C940.385 346.171 939.403 346.32 938.337 346.32ZM955.877 346.32C954.277 346.32 952.815 346.011 951.493 345.392C950.17 344.773 949.125 343.899 948.357 342.768L950.725 340.72C951.194 341.595 951.866 342.299 952.741 342.832C953.637 343.344 954.703 343.6 955.941 343.6C956.922 343.6 957.701 343.429 958.277 343.088C958.853 342.747 959.141 342.267 959.141 341.648C959.141 341.243 959.002 340.891 958.725 340.592C958.469 340.272 957.967 340.027 957.221 339.856L953.861 339.152C952.154 338.811 950.938 338.267 950.213 337.52C949.487 336.752 949.125 335.781 949.125 334.608C949.125 333.733 949.381 332.923 949.893 332.176C950.405 331.429 951.151 330.832 952.133 330.384C953.135 329.915 954.33 329.68 955.717 329.68C957.317 329.68 958.682 329.968 959.813 330.544C960.943 331.099 961.807 331.899 962.405 332.944L960.037 334.928C959.631 334.075 959.034 333.445 958.245 333.04C957.455 332.613 956.634 332.4 955.781 332.4C955.098 332.4 954.511 332.485 954.021 332.656C953.53 332.827 953.157 333.061 952.901 333.36C952.645 333.659 952.517 334.011 952.517 334.416C952.517 334.843 952.677 335.216 952.997 335.536C953.317 335.856 953.893 336.101 954.725 336.272L958.373 337.04C959.909 337.339 960.986 337.851 961.605 338.576C962.245 339.28 962.565 340.144 962.565 341.168C962.565 342.192 962.298 343.099 961.765 343.888C961.231 344.656 960.463 345.253 959.461 345.68C958.458 346.107 957.263 346.32 955.877 346.32ZM968.462 327.312C967.715 327.312 967.139 327.131 966.734 326.768C966.35 326.384 966.158 325.851 966.158 325.168C966.158 324.485 966.35 323.963 966.734 323.6C967.139 323.237 967.715 323.056 968.462 323.056C969.187 323.056 969.742 323.237 970.126 323.6C970.531 323.963 970.734 324.485 970.734 325.168C970.734 325.851 970.531 326.384 970.126 326.768C969.742 327.131 969.187 327.312 968.462 327.312ZM970.158 330V346H966.734V330H970.158ZM989.595 326.64L990.139 329.328C990.075 329.328 990.011 329.328 989.947 329.328C989.883 329.307 989.819 329.296 989.755 329.296C988.731 329.296 987.953 329.52 987.419 329.968C986.886 330.395 986.619 331.024 986.619 331.856L984.955 331.088C984.955 330.235 985.137 329.477 985.499 328.816C985.862 328.133 986.374 327.6 987.035 327.216C987.718 326.832 988.486 326.64 989.339 326.64C989.382 326.64 989.425 326.64 989.467 326.64C989.51 326.64 989.553 326.64 989.595 326.64ZM984.539 343.504C986.161 343.504 987.419 343.867 988.315 344.592C989.211 345.296 989.659 346.277 989.659 347.536C989.659 348.645 989.307 349.595 988.603 350.384C987.899 351.195 986.939 351.813 985.723 352.24C984.529 352.667 983.153 352.88 981.595 352.88C978.971 352.88 977.03 352.475 975.771 351.664C974.513 350.853 973.883 349.84 973.883 348.624C973.883 347.771 974.182 347.024 974.779 346.384C975.398 345.744 976.433 345.381 977.883 345.296L977.691 345.808C976.795 345.616 976.07 345.275 975.515 344.784C974.982 344.272 974.715 343.557 974.715 342.64C974.715 341.723 975.067 340.944 975.771 340.304C976.475 339.664 977.467 339.291 978.747 339.184L980.539 340.048H980.155C979.174 340.133 978.481 340.357 978.075 340.72C977.67 341.083 977.467 341.488 977.467 341.936C977.467 342.469 977.659 342.864 978.043 343.12C978.449 343.376 979.014 343.504 979.739 343.504H984.539ZM981.595 350.32C982.769 350.32 983.729 350.203 984.475 349.968C985.243 349.755 985.809 349.467 986.171 349.104C986.555 348.763 986.747 348.379 986.747 347.952C986.747 347.461 986.545 347.067 986.139 346.768C985.755 346.469 985.051 346.32 984.027 346.32H978.875C978.278 346.32 977.777 346.469 977.371 346.768C976.966 347.088 976.763 347.515 976.763 348.048C976.763 348.752 977.19 349.307 978.043 349.712C978.897 350.117 980.081 350.32 981.595 350.32ZM981.467 329.68C982.875 329.68 984.091 329.904 985.115 330.352C986.161 330.8 986.961 331.429 987.515 332.24C988.091 333.051 988.379 334 988.379 335.088C988.379 336.176 988.091 337.125 987.515 337.936C986.961 338.747 986.161 339.376 985.115 339.824C984.091 340.272 982.875 340.496 981.467 340.496C979.249 340.496 977.542 340.005 976.347 339.024C975.174 338.021 974.587 336.709 974.587 335.088C974.587 334 974.875 333.051 975.451 332.24C976.027 331.429 976.827 330.8 977.851 330.352C978.897 329.904 980.102 329.68 981.467 329.68ZM981.467 332.08C980.486 332.08 979.665 332.357 979.003 332.912C978.363 333.445 978.043 334.171 978.043 335.088C978.043 336.005 978.363 336.741 979.003 337.296C979.665 337.851 980.486 338.128 981.467 338.128C982.47 338.128 983.291 337.851 983.931 337.296C984.593 336.741 984.923 336.005 984.923 335.088C984.923 334.171 984.593 333.445 983.931 332.912C983.291 332.357 982.47 332.08 981.467 332.08ZM992.797 346V330H995.837L996.061 334.16L995.613 333.712C995.911 332.795 996.338 332.037 996.893 331.44C997.469 330.821 998.141 330.373 998.909 330.096C999.698 329.819 1000.53 329.68 1001.4 329.68C1002.54 329.68 1003.55 329.904 1004.44 330.352C1005.36 330.779 1006.09 331.429 1006.62 332.304C1007.15 333.179 1007.42 334.288 1007.42 335.632V346H1004V336.688C1004 335.109 1003.67 334.021 1003 333.424C1002.36 332.805 1001.55 332.496 1000.57 332.496C999.869 332.496 999.186 332.667 998.525 333.008C997.863 333.328 997.309 333.851 996.861 334.576C996.434 335.301 996.221 336.272 996.221 337.488V346H992.797Z" fill="black"/>
<path d="M505.308 307V285.88H513.628C516.167 285.88 518.023 286.392 519.196 287.416C520.369 288.44 520.956 289.859 520.956 291.672C520.956 292.781 520.636 293.773 519.996 294.648C519.356 295.501 518.417 296.045 517.18 296.28V296.312C518.545 296.525 519.601 297.091 520.348 298.008C521.116 298.904 521.5 299.949 521.5 301.144C521.5 302.957 520.839 304.387 519.516 305.432C518.193 306.477 516.273 307 513.756 307H505.308ZM508.668 304.152H513.916C515.26 304.152 516.263 303.875 516.924 303.32C517.607 302.765 517.948 301.987 517.948 300.984C517.948 299.981 517.607 299.203 516.924 298.648C516.263 298.093 515.26 297.816 513.916 297.816H508.668V304.152ZM508.668 294.968H513.372C516.06 294.968 517.404 293.933 517.404 291.864C517.404 289.795 516.06 288.76 513.372 288.76H508.668V294.968ZM531.711 307.32C530.666 307.32 529.695 307.128 528.799 306.744C527.925 306.36 527.221 305.741 526.687 304.888C526.154 304.035 525.887 302.925 525.887 301.56V291H529.311V300.696C529.311 302.147 529.621 303.149 530.239 303.704C530.858 304.237 531.722 304.504 532.831 304.504C533.365 304.504 533.877 304.419 534.367 304.248C534.879 304.056 535.338 303.768 535.743 303.384C536.149 302.979 536.458 302.467 536.671 301.848C536.906 301.229 537.023 300.504 537.023 299.672V291H540.447V307H537.439L537.279 304.408C536.725 305.411 535.978 306.147 535.039 306.616C534.101 307.085 532.991 307.32 531.711 307.32ZM547.525 288.312C546.778 288.312 546.202 288.131 545.797 287.768C545.413 287.384 545.221 286.851 545.221 286.168C545.221 285.485 545.413 284.963 545.797 284.6C546.202 284.237 546.778 284.056 547.525 284.056C548.25 284.056 548.805 284.237 549.189 284.6C549.594 284.963 549.797 285.485 549.797 286.168C549.797 286.851 549.594 287.384 549.189 287.768C548.805 288.131 548.25 288.312 547.525 288.312ZM549.221 291V307H545.797V291H549.221ZM557.906 283.8V302.52C557.906 303.309 558.045 303.853 558.322 304.152C558.599 304.451 559.058 304.6 559.698 304.6C560.082 304.6 560.402 304.579 560.658 304.536C560.935 304.472 561.277 304.365 561.682 304.216L561.298 306.776C560.935 306.947 560.519 307.075 560.05 307.16C559.581 307.267 559.111 307.32 558.642 307.32C557.213 307.32 556.157 306.957 555.474 306.232C554.813 305.485 554.482 304.344 554.482 302.808V283.8H557.906ZM570.691 307.32C569.368 307.32 568.163 306.989 567.075 306.328C566.008 305.667 565.165 304.717 564.547 303.48C563.928 302.243 563.619 300.76 563.619 299.032C563.619 297.24 563.949 295.725 564.611 294.488C565.272 293.251 566.157 292.312 567.267 291.672C568.376 291.011 569.592 290.68 570.915 290.68C572.28 290.68 573.432 291.053 574.371 291.8C575.309 292.547 575.939 293.517 576.259 294.712L575.875 295.064V283.8H579.299V307H576.259L576.003 302.648L576.451 302.68C576.301 303.64 575.949 304.472 575.395 305.176C574.84 305.859 574.147 306.392 573.315 306.776C572.504 307.139 571.629 307.32 570.691 307.32ZM571.427 304.568C572.344 304.568 573.133 304.333 573.795 303.864C574.456 303.395 574.968 302.733 575.331 301.88C575.693 301.027 575.875 300.003 575.875 298.808C575.875 297.699 575.693 296.749 575.331 295.96C574.968 295.149 574.456 294.531 573.795 294.104C573.155 293.677 572.408 293.464 571.555 293.464C570.125 293.464 569.016 293.955 568.227 294.936C567.437 295.917 567.043 297.272 567.043 299C567.043 300.728 567.427 302.093 568.195 303.096C568.963 304.077 570.04 304.568 571.427 304.568ZM586.337 288.312C585.59 288.312 585.014 288.131 584.609 287.768C584.225 287.384 584.033 286.851 584.033 286.168C584.033 285.485 584.225 284.963 584.609 284.6C585.014 284.237 585.59 284.056 586.337 284.056C587.062 284.056 587.617 284.237 588.001 284.6C588.406 284.963 588.609 285.485 588.609 286.168C588.609 286.851 588.406 287.384 588.001 287.768C587.617 288.131 587.062 288.312 586.337 288.312ZM588.033 291V307H584.609V291H588.033ZM593.39 307V291H596.43L596.654 295.16L596.206 294.712C596.505 293.795 596.932 293.037 597.486 292.44C598.062 291.821 598.734 291.373 599.502 291.096C600.292 290.819 601.124 290.68 601.998 290.68C603.129 290.68 604.142 290.904 605.038 291.352C605.956 291.779 606.681 292.429 607.214 293.304C607.748 294.179 608.014 295.288 608.014 296.632V307H604.59V297.688C604.59 296.109 604.26 295.021 603.598 294.424C602.958 293.805 602.148 293.496 601.166 293.496C600.462 293.496 599.78 293.667 599.118 294.008C598.457 294.328 597.902 294.851 597.454 295.576C597.028 296.301 596.814 297.272 596.814 298.488V307H593.39ZM627.283 287.64L627.827 290.328C627.763 290.328 627.699 290.328 627.635 290.328C627.571 290.307 627.507 290.296 627.443 290.296C626.419 290.296 625.64 290.52 625.107 290.968C624.574 291.395 624.307 292.024 624.307 292.856L622.643 292.088C622.643 291.235 622.824 290.477 623.187 289.816C623.55 289.133 624.062 288.6 624.723 288.216C625.406 287.832 626.174 287.64 627.027 287.64C627.07 287.64 627.112 287.64 627.155 287.64C627.198 287.64 627.24 287.64 627.283 287.64ZM622.227 304.504C623.848 304.504 625.107 304.867 626.003 305.592C626.899 306.296 627.347 307.277 627.347 308.536C627.347 309.645 626.995 310.595 626.291 311.384C625.587 312.195 624.627 312.813 623.411 313.24C622.216 313.667 620.84 313.88 619.283 313.88C616.659 313.88 614.718 313.475 613.459 312.664C612.2 311.853 611.571 310.84 611.571 309.624C611.571 308.771 611.87 308.024 612.467 307.384C613.086 306.744 614.12 306.381 615.571 306.296L615.379 306.808C614.483 306.616 613.758 306.275 613.203 305.784C612.67 305.272 612.403 304.557 612.403 303.64C612.403 302.723 612.755 301.944 613.459 301.304C614.163 300.664 615.155 300.291 616.435 300.184L618.227 301.048H617.843C616.862 301.133 616.168 301.357 615.763 301.72C615.358 302.083 615.155 302.488 615.155 302.936C615.155 303.469 615.347 303.864 615.731 304.12C616.136 304.376 616.702 304.504 617.427 304.504H622.227ZM619.283 311.32C620.456 311.32 621.416 311.203 622.163 310.968C622.931 310.755 623.496 310.467 623.859 310.104C624.243 309.763 624.435 309.379 624.435 308.952C624.435 308.461 624.232 308.067 623.827 307.768C623.443 307.469 622.739 307.32 621.715 307.32H616.563C615.966 307.32 615.464 307.469 615.059 307.768C614.654 308.088 614.451 308.515 614.451 309.048C614.451 309.752 614.878 310.307 615.731 310.712C616.584 311.117 617.768 311.32 619.283 311.32ZM619.155 290.68C620.563 290.68 621.779 290.904 622.803 291.352C623.848 291.8 624.648 292.429 625.203 293.24C625.779 294.051 626.067 295 626.067 296.088C626.067 297.176 625.779 298.125 625.203 298.936C624.648 299.747 623.848 300.376 622.803 300.824C621.779 301.272 620.563 301.496 619.155 301.496C616.936 301.496 615.23 301.005 614.035 300.024C612.862 299.021 612.275 297.709 612.275 296.088C612.275 295 612.563 294.051 613.139 293.24C613.715 292.429 614.515 291.8 615.539 291.352C616.584 290.904 617.79 290.68 619.155 290.68ZM619.155 293.08C618.174 293.08 617.352 293.357 616.691 293.912C616.051 294.445 615.731 295.171 615.731 296.088C615.731 297.005 616.051 297.741 616.691 298.296C617.352 298.851 618.174 299.128 619.155 299.128C620.158 299.128 620.979 298.851 621.619 298.296C622.28 297.741 622.611 297.005 622.611 296.088C622.611 295.171 622.28 294.445 621.619 293.912C620.979 293.357 620.158 293.08 619.155 293.08ZM484.92 339.32C483.981 339.32 483.117 339.139 482.328 338.776C481.56 338.413 480.909 337.912 480.376 337.272C479.842 336.611 479.448 335.875 479.192 335.064L479.608 334.52L479.352 339H476.344V315.8H479.768V327.032L479.384 326.488C479.789 325.379 480.482 324.472 481.464 323.768C482.445 323.043 483.629 322.68 485.016 322.68C486.296 322.68 487.469 323.011 488.536 323.672C489.624 324.333 490.477 325.283 491.096 326.52C491.714 327.757 492.024 329.261 492.024 331.032C492.024 332.76 491.704 334.243 491.064 335.48C490.445 336.717 489.592 337.667 488.504 338.328C487.437 338.989 486.242 339.32 484.92 339.32ZM484.184 336.568C485.57 336.568 486.648 336.077 487.416 335.096C488.205 334.093 488.6 332.728 488.6 331C488.6 329.272 488.216 327.917 487.448 326.936C486.68 325.955 485.602 325.464 484.216 325.464C483.32 325.464 482.541 325.699 481.88 326.168C481.218 326.616 480.696 327.256 480.312 328.088C479.949 328.92 479.768 329.912 479.768 331.064C479.768 332.195 479.949 333.176 480.312 334.008C480.674 334.819 481.186 335.448 481.848 335.896C482.53 336.344 483.309 336.568 484.184 336.568ZM496.406 339V323H499.318L499.638 325.88C500.065 324.835 500.694 324.045 501.526 323.512C502.379 322.957 503.425 322.68 504.662 322.68C504.982 322.68 505.302 322.712 505.622 322.776C505.942 322.819 506.209 322.893 506.422 323L505.942 326.008C505.707 325.923 505.441 325.859 505.142 325.816C504.865 325.752 504.481 325.72 503.99 325.72C503.329 325.72 502.678 325.901 502.038 326.264C501.398 326.605 500.865 327.128 500.438 327.832C500.033 328.536 499.83 329.432 499.83 330.52V339H496.406ZM518.56 328.728C518.56 327.661 518.262 326.84 517.664 326.264C517.088 325.667 516.288 325.368 515.264 325.368C514.304 325.368 513.483 325.592 512.8 326.04C512.118 326.488 511.616 327.213 511.296 328.216L508.416 327C508.822 325.699 509.611 324.653 510.784 323.864C511.979 323.075 513.515 322.68 515.392 322.68C516.672 322.68 517.803 322.893 518.784 323.32C519.766 323.725 520.534 324.344 521.088 325.176C521.664 326.008 521.952 327.075 521.952 328.376V335.512C521.952 336.301 522.347 336.696 523.136 336.696C523.52 336.696 523.894 336.643 524.256 336.536L524.064 338.904C523.574 339.139 522.955 339.256 522.208 339.256C521.526 339.256 520.907 339.139 520.352 338.904C519.819 338.648 519.392 338.275 519.072 337.784C518.774 337.272 518.624 336.643 518.624 335.896V335.672L519.328 335.64C519.136 336.472 518.742 337.165 518.144 337.72C517.547 338.253 516.854 338.659 516.064 338.936C515.275 339.192 514.475 339.32 513.664 339.32C512.662 339.32 511.755 339.16 510.944 338.84C510.155 338.52 509.526 338.04 509.056 337.4C508.608 336.739 508.384 335.928 508.384 334.968C508.384 333.773 508.768 332.792 509.536 332.024C510.326 331.256 511.435 330.733 512.864 330.456L519.072 329.24L519.04 331.64L514.528 332.568C513.632 332.739 512.96 332.984 512.512 333.304C512.064 333.624 511.84 334.093 511.84 334.712C511.84 335.309 512.064 335.789 512.512 336.152C512.982 336.493 513.6 336.664 514.368 336.664C514.902 336.664 515.414 336.6 515.904 336.472C516.416 336.344 516.875 336.141 517.28 335.864C517.686 335.565 517.995 335.192 518.208 334.744C518.443 334.275 518.56 333.72 518.56 333.08V328.728ZM527.562 339V323H530.602L530.826 327.16L530.378 326.712C530.677 325.795 531.104 325.037 531.658 324.44C532.234 323.821 532.906 323.373 533.674 323.096C534.464 322.819 535.296 322.68 536.17 322.68C537.301 322.68 538.314 322.904 539.21 323.352C540.128 323.779 540.853 324.429 541.386 325.304C541.92 326.179 542.186 327.288 542.186 328.632V339H538.762V329.688C538.762 328.109 538.432 327.021 537.77 326.424C537.13 325.805 536.32 325.496 535.338 325.496C534.634 325.496 533.952 325.667 533.29 326.008C532.629 326.328 532.074 326.851 531.626 327.576C531.2 328.301 530.986 329.272 530.986 330.488V339H527.562ZM553.519 339.32C552.196 339.32 550.991 338.989 549.903 338.328C548.836 337.667 547.993 336.717 547.375 335.48C546.756 334.243 546.447 332.76 546.447 331.032C546.447 329.24 546.777 327.725 547.439 326.488C548.1 325.251 548.985 324.312 550.095 323.672C551.204 323.011 552.42 322.68 553.743 322.68C555.108 322.68 556.26 323.053 557.199 323.8C558.137 324.547 558.767 325.517 559.087 326.712L558.703 327.064V315.8H562.127V339H559.087L558.831 334.648L559.279 334.68C559.129 335.64 558.777 336.472 558.223 337.176C557.668 337.859 556.975 338.392 556.143 338.776C555.332 339.139 554.457 339.32 553.519 339.32ZM554.255 336.568C555.172 336.568 555.961 336.333 556.623 335.864C557.284 335.395 557.796 334.733 558.159 333.88C558.521 333.027 558.703 332.003 558.703 330.808C558.703 329.699 558.521 328.749 558.159 327.96C557.796 327.149 557.284 326.531 556.623 326.104C555.983 325.677 555.236 325.464 554.383 325.464C552.953 325.464 551.844 325.955 551.055 326.936C550.265 327.917 549.871 329.272 549.871 331C549.871 332.728 550.255 334.093 551.023 335.096C551.791 336.077 552.868 336.568 554.255 336.568ZM573.517 339.32C571.917 339.32 570.456 339.011 569.133 338.392C567.811 337.773 566.765 336.899 565.997 335.768L568.365 333.72C568.835 334.595 569.507 335.299 570.381 335.832C571.277 336.344 572.344 336.6 573.581 336.6C574.563 336.6 575.341 336.429 575.917 336.088C576.493 335.747 576.781 335.267 576.781 334.648C576.781 334.243 576.643 333.891 576.365 333.592C576.109 333.272 575.608 333.027 574.861 332.856L571.501 332.152C569.795 331.811 568.579 331.267 567.853 330.52C567.128 329.752 566.765 328.781 566.765 327.608C566.765 326.733 567.021 325.923 567.533 325.176C568.045 324.429 568.792 323.832 569.773 323.384C570.776 322.915 571.971 322.68 573.357 322.68C574.957 322.68 576.323 322.968 577.453 323.544C578.584 324.099 579.448 324.899 580.045 325.944L577.677 327.928C577.272 327.075 576.675 326.445 575.885 326.04C575.096 325.613 574.275 325.4 573.421 325.4C572.739 325.4 572.152 325.485 571.661 325.656C571.171 325.827 570.797 326.061 570.541 326.36C570.285 326.659 570.157 327.011 570.157 327.416C570.157 327.843 570.317 328.216 570.637 328.536C570.957 328.856 571.533 329.101 572.365 329.272L576.013 330.04C577.549 330.339 578.627 330.851 579.245 331.576C579.885 332.28 580.205 333.144 580.205 334.168C580.205 335.192 579.939 336.099 579.405 336.888C578.872 337.656 578.104 338.253 577.101 338.68C576.099 339.107 574.904 339.32 573.517 339.32ZM598.953 318.296V334.2C598.953 334.989 599.156 335.565 599.561 335.928C599.988 336.291 600.553 336.472 601.257 336.472C601.833 336.472 602.334 336.387 602.761 336.216C603.188 336.024 603.582 335.768 603.945 335.448L604.713 337.944C604.222 338.371 603.614 338.712 602.889 338.968C602.185 339.203 601.396 339.32 600.521 339.32C599.604 339.32 598.761 339.171 597.993 338.872C597.225 338.573 596.628 338.093 596.201 337.432C595.774 336.749 595.55 335.864 595.529 334.776V319.256L598.953 318.296ZM604.457 323V325.688H592.457V323H604.457ZM607.969 339V315.8H611.393V325.56C611.926 324.557 612.641 323.832 613.536 323.384C614.454 322.915 615.467 322.68 616.577 322.68C617.707 322.68 618.721 322.904 619.617 323.352C620.534 323.779 621.259 324.429 621.793 325.304C622.326 326.179 622.593 327.288 622.593 328.632V339H619.169V329.72C619.169 328.141 618.838 327.043 618.177 326.424C617.537 325.805 616.726 325.496 615.745 325.496C615.062 325.496 614.379 325.667 613.697 326.008C613.035 326.328 612.481 326.861 612.033 327.608C611.606 328.333 611.393 329.315 611.393 330.552V339H607.969ZM637.029 328.728C637.029 327.661 636.73 326.84 636.133 326.264C635.557 325.667 634.757 325.368 633.733 325.368C632.773 325.368 631.952 325.592 631.269 326.04C630.586 326.488 630.085 327.213 629.765 328.216L626.885 327C627.29 325.699 628.08 324.653 629.253 323.864C630.448 323.075 631.984 322.68 633.861 322.68C635.141 322.68 636.272 322.893 637.253 323.32C638.234 323.725 639.002 324.344 639.557 325.176C640.133 326.008 640.421 327.075 640.421 328.376V335.512C640.421 336.301 640.816 336.696 641.605 336.696C641.989 336.696 642.362 336.643 642.725 336.536L642.533 338.904C642.042 339.139 641.424 339.256 640.677 339.256C639.994 339.256 639.376 339.139 638.821 338.904C638.288 338.648 637.861 338.275 637.541 337.784C637.242 337.272 637.093 336.643 637.093 335.896V335.672L637.797 335.64C637.605 336.472 637.21 337.165 636.613 337.72C636.016 338.253 635.322 338.659 634.533 338.936C633.744 339.192 632.944 339.32 632.133 339.32C631.13 339.32 630.224 339.16 629.413 338.84C628.624 338.52 627.994 338.04 627.525 337.4C627.077 336.739 626.853 335.928 626.853 334.968C626.853 333.773 627.237 332.792 628.005 332.024C628.794 331.256 629.904 330.733 631.333 330.456L637.541 329.24L637.509 331.64L632.997 332.568C632.101 332.739 631.429 332.984 630.981 333.304C630.533 333.624 630.309 334.093 630.309 334.712C630.309 335.309 630.533 335.789 630.981 336.152C631.45 336.493 632.069 336.664 632.837 336.664C633.37 336.664 633.882 336.6 634.373 336.472C634.885 336.344 635.344 336.141 635.749 335.864C636.154 335.565 636.464 335.192 636.677 334.744C636.912 334.275 637.029 333.72 637.029 333.08V328.728ZM650.078 318.296V334.2C650.078 334.989 650.281 335.565 650.686 335.928C651.113 336.291 651.678 336.472 652.382 336.472C652.958 336.472 653.459 336.387 653.886 336.216C654.313 336.024 654.707 335.768 655.07 335.448L655.838 337.944C655.347 338.371 654.739 338.712 654.014 338.968C653.31 339.203 652.521 339.32 651.646 339.32C650.729 339.32 649.886 339.171 649.118 338.872C648.35 338.573 647.753 338.093 647.326 337.432C646.899 336.749 646.675 335.864 646.654 334.776V319.256L650.078 318.296ZM655.582 323V325.688H643.582V323H655.582ZM533.283 371.32C531.683 371.32 530.222 371.011 528.899 370.392C527.576 369.773 526.531 368.899 525.763 367.768L528.131 365.72C528.6 366.595 529.272 367.299 530.147 367.832C531.043 368.344 532.11 368.6 533.347 368.6C534.328 368.6 535.107 368.429 535.683 368.088C536.259 367.747 536.547 367.267 536.547 366.648C536.547 366.243 536.408 365.891 536.131 365.592C535.875 365.272 535.374 365.027 534.627 364.856L531.267 364.152C529.56 363.811 528.344 363.267 527.619 362.52C526.894 361.752 526.531 360.781 526.531 359.608C526.531 358.733 526.787 357.923 527.299 357.176C527.811 356.429 528.558 355.832 529.539 355.384C530.542 354.915 531.736 354.68 533.123 354.68C534.723 354.68 536.088 354.968 537.219 355.544C538.35 356.099 539.214 356.899 539.811 357.944L537.443 359.928C537.038 359.075 536.44 358.445 535.651 358.04C534.862 357.613 534.04 357.4 533.187 357.4C532.504 357.4 531.918 357.485 531.427 357.656C530.936 357.827 530.563 358.061 530.307 358.36C530.051 358.659 529.923 359.011 529.923 359.416C529.923 359.843 530.083 360.216 530.403 360.536C530.723 360.856 531.299 361.101 532.131 361.272L535.779 362.04C537.315 362.339 538.392 362.851 539.011 363.576C539.651 364.28 539.971 365.144 539.971 366.168C539.971 367.192 539.704 368.099 539.171 368.888C538.638 369.656 537.87 370.253 536.867 370.68C535.864 371.107 534.67 371.32 533.283 371.32ZM551.053 354.68C552.61 354.68 553.986 355.011 555.181 355.672C556.376 356.333 557.304 357.293 557.965 358.552C558.648 359.789 558.989 361.272 558.989 363C558.989 364.728 558.648 366.221 557.965 367.48C557.304 368.717 556.376 369.667 555.181 370.328C553.986 370.989 552.61 371.32 551.053 371.32C549.496 371.32 548.12 370.989 546.925 370.328C545.73 369.667 544.792 368.717 544.109 367.48C543.426 366.221 543.085 364.728 543.085 363C543.085 361.272 543.426 359.789 544.109 358.552C544.792 357.293 545.73 356.333 546.925 355.672C548.12 355.011 549.496 354.68 551.053 354.68ZM551.053 357.368C550.093 357.368 549.272 357.592 548.589 358.04C547.928 358.467 547.416 359.096 547.053 359.928C546.69 360.76 546.509 361.784 546.509 363C546.509 364.195 546.69 365.219 547.053 366.072C547.416 366.904 547.928 367.544 548.589 367.992C549.272 368.419 550.093 368.632 551.053 368.632C552.013 368.632 552.824 368.419 553.485 367.992C554.146 367.544 554.658 366.904 555.021 366.072C555.384 365.219 555.565 364.195 555.565 363C555.565 361.784 555.384 360.76 555.021 359.928C554.658 359.096 554.146 358.467 553.485 358.04C552.824 357.592 552.013 357.368 551.053 357.368ZM566.625 347.8V366.52C566.625 367.309 566.763 367.853 567.041 368.152C567.318 368.451 567.777 368.6 568.417 368.6C568.801 368.6 569.121 368.579 569.377 368.536C569.654 368.472 569.995 368.365 570.401 368.216L570.017 370.776C569.654 370.947 569.238 371.075 568.769 371.16C568.299 371.267 567.83 371.32 567.361 371.32C565.931 371.32 564.875 370.957 564.193 370.232C563.531 369.485 563.201 368.344 563.201 366.808V347.8H566.625ZM583.2 355H586.784L580.416 371H576.672L570.272 355H574.016L578.56 368.024L583.2 355ZM596.649 371.32C595.049 371.32 593.641 370.989 592.425 370.328C591.209 369.667 590.26 368.717 589.577 367.48C588.916 366.221 588.585 364.728 588.585 363C588.585 361.272 588.916 359.789 589.577 358.552C590.26 357.293 591.198 356.333 592.393 355.672C593.588 355.011 594.942 354.68 596.457 354.68C598.014 354.68 599.337 355 600.425 355.64C601.513 356.28 602.345 357.155 602.921 358.264C603.497 359.373 603.785 360.632 603.785 362.04C603.785 362.424 603.774 362.787 603.753 363.128C603.732 363.469 603.7 363.768 603.657 364.024H590.793V361.4H602.153L600.457 361.912C600.457 360.461 600.094 359.352 599.369 358.584C598.644 357.795 597.652 357.4 596.393 357.4C595.476 357.4 594.676 357.613 593.993 358.04C593.31 358.467 592.788 359.107 592.425 359.96C592.062 360.792 591.881 361.816 591.881 363.032C591.881 364.227 592.073 365.24 592.457 366.072C592.841 366.904 593.385 367.533 594.089 367.96C594.793 368.387 595.625 368.6 596.585 368.6C597.652 368.6 598.516 368.397 599.177 367.992C599.838 367.587 600.361 367.021 600.745 366.296L603.465 367.576C603.081 368.344 602.558 369.016 601.897 369.592C601.257 370.147 600.489 370.573 599.593 370.872C598.697 371.171 597.716 371.32 596.649 371.32ZM493.687 409.72V387H496.727L496.983 391.48L496.535 390.936C496.791 390.104 497.186 389.368 497.719 388.728C498.253 388.088 498.914 387.587 499.703 387.224C500.514 386.861 501.399 386.68 502.359 386.68C503.661 386.68 504.845 387.011 505.911 387.672C506.978 388.333 507.821 389.283 508.439 390.52C509.058 391.736 509.367 393.219 509.367 394.968C509.367 396.717 509.047 398.221 508.407 399.48C507.789 400.717 506.935 401.667 505.847 402.328C504.781 402.989 503.586 403.32 502.263 403.32C500.898 403.32 499.735 402.968 498.775 402.264C497.815 401.539 497.133 400.621 496.727 399.512L497.111 398.968V409.72H493.687ZM501.527 400.536C502.914 400.536 503.991 400.045 504.759 399.064C505.549 398.083 505.943 396.728 505.943 395C505.943 393.272 505.559 391.917 504.791 390.936C504.023 389.933 502.957 389.432 501.591 389.432C500.695 389.432 499.906 389.667 499.223 390.136C498.562 390.584 498.039 391.224 497.655 392.056C497.293 392.867 497.111 393.848 497.111 395C497.111 396.131 497.293 397.112 497.655 397.944C498.018 398.776 498.53 399.416 499.191 399.864C499.853 400.312 500.631 400.536 501.527 400.536ZM513.75 403V387H516.662L516.982 389.88C517.408 388.835 518.038 388.045 518.87 387.512C519.723 386.957 520.768 386.68 522.006 386.68C522.326 386.68 522.646 386.712 522.966 386.776C523.286 386.819 523.552 386.893 523.766 387L523.286 390.008C523.051 389.923 522.784 389.859 522.486 389.816C522.208 389.752 521.824 389.72 521.334 389.72C520.672 389.72 520.022 389.901 519.382 390.264C518.742 390.605 518.208 391.128 517.782 391.832C517.376 392.536 517.174 393.432 517.174 394.52V403H513.75ZM533.538 386.68C535.095 386.68 536.471 387.011 537.666 387.672C538.86 388.333 539.788 389.293 540.45 390.552C541.132 391.789 541.474 393.272 541.474 395C541.474 396.728 541.132 398.221 540.45 399.48C539.788 400.717 538.86 401.667 537.666 402.328C536.471 402.989 535.095 403.32 533.538 403.32C531.98 403.32 530.604 402.989 529.41 402.328C528.215 401.667 527.276 400.717 526.594 399.48C525.911 398.221 525.57 396.728 525.57 395C525.57 393.272 525.911 391.789 526.594 390.552C527.276 389.293 528.215 388.333 529.41 387.672C530.604 387.011 531.98 386.68 533.538 386.68ZM533.538 389.368C532.578 389.368 531.756 389.592 531.074 390.04C530.412 390.467 529.9 391.096 529.538 391.928C529.175 392.76 528.994 393.784 528.994 395C528.994 396.195 529.175 397.219 529.538 398.072C529.9 398.904 530.412 399.544 531.074 399.992C531.756 400.419 532.578 400.632 533.538 400.632C534.498 400.632 535.308 400.419 535.97 399.992C536.631 399.544 537.143 398.904 537.506 398.072C537.868 397.219 538.05 396.195 538.05 395C538.05 393.784 537.868 392.76 537.506 391.928C537.143 391.096 536.631 390.467 535.97 390.04C535.308 389.592 534.498 389.368 533.538 389.368ZM554.357 403.32C553.418 403.32 552.554 403.139 551.765 402.776C550.997 402.413 550.346 401.912 549.813 401.272C549.28 400.611 548.885 399.875 548.629 399.064L549.045 398.52L548.789 403H545.781V379.8H549.205V391.032L548.821 390.488C549.226 389.379 549.92 388.472 550.901 387.768C551.882 387.043 553.066 386.68 554.453 386.68C555.733 386.68 556.906 387.011 557.973 387.672C559.061 388.333 559.914 389.283 560.533 390.52C561.152 391.757 561.461 393.261 561.461 395.032C561.461 396.76 561.141 398.243 560.501 399.48C559.882 400.717 559.029 401.667 557.941 402.328C556.874 402.989 555.68 403.32 554.357 403.32ZM553.621 400.568C555.008 400.568 556.085 400.077 556.853 399.096C557.642 398.093 558.037 396.728 558.037 395C558.037 393.272 557.653 391.917 556.885 390.936C556.117 389.955 555.04 389.464 553.653 389.464C552.757 389.464 551.978 389.699 551.317 390.168C550.656 390.616 550.133 391.256 549.749 392.088C549.386 392.92 549.205 393.912 549.205 395.064C549.205 396.195 549.386 397.176 549.749 398.008C550.112 398.819 550.624 399.448 551.285 399.896C551.968 400.344 552.746 400.568 553.621 400.568ZM569.172 379.8V398.52C569.172 399.309 569.31 399.853 569.588 400.152C569.865 400.451 570.324 400.6 570.964 400.6C571.348 400.6 571.668 400.579 571.924 400.536C572.201 400.472 572.542 400.365 572.948 400.216L572.564 402.776C572.201 402.947 571.785 403.075 571.316 403.16C570.846 403.267 570.377 403.32 569.908 403.32C568.478 403.32 567.422 402.957 566.74 402.232C566.078 401.485 565.748 400.344 565.748 398.808V379.8H569.172ZM582.852 403.32C581.252 403.32 579.844 402.989 578.628 402.328C577.412 401.667 576.463 400.717 575.78 399.48C575.119 398.221 574.788 396.728 574.788 395C574.788 393.272 575.119 391.789 575.78 390.552C576.463 389.293 577.402 388.333 578.596 387.672C579.791 387.011 581.146 386.68 582.66 386.68C584.218 386.68 585.54 387 586.628 387.64C587.716 388.28 588.548 389.155 589.124 390.264C589.7 391.373 589.988 392.632 589.988 394.04C589.988 394.424 589.978 394.787 589.956 395.128C589.935 395.469 589.903 395.768 589.86 396.024H576.996V393.4H588.356L586.66 393.912C586.66 392.461 586.298 391.352 585.572 390.584C584.847 389.795 583.855 389.4 582.596 389.4C581.679 389.4 580.879 389.613 580.196 390.04C579.514 390.467 578.991 391.107 578.628 391.96C578.266 392.792 578.084 393.816 578.084 395.032C578.084 396.227 578.276 397.24 578.66 398.072C579.044 398.904 579.588 399.533 580.292 399.96C580.996 400.387 581.828 400.6 582.788 400.6C583.855 400.6 584.719 400.397 585.38 399.992C586.042 399.587 586.564 399.021 586.948 398.296L589.668 399.576C589.284 400.344 588.762 401.016 588.1 401.592C587.46 402.147 586.692 402.573 585.796 402.872C584.9 403.171 583.919 403.32 582.852 403.32ZM594.312 403V387H597.352L597.512 389.688C598.067 388.664 598.803 387.907 599.72 387.416C600.659 386.925 601.651 386.68 602.696 386.68C603.848 386.68 604.904 386.947 605.864 387.48C606.846 387.992 607.582 388.771 608.072 389.816C608.414 389.112 608.883 388.525 609.48 388.056C610.078 387.587 610.739 387.245 611.464 387.032C612.19 386.797 612.904 386.68 613.608 386.68C614.632 386.68 615.592 386.893 616.488 387.32C617.384 387.747 618.11 388.397 618.664 389.272C619.219 390.147 619.496 391.267 619.496 392.632V403H616.072V393.176C616.072 391.875 615.763 390.936 615.144 390.36C614.526 389.784 613.736 389.496 612.776 389.496C612.03 389.496 611.336 389.677 610.696 390.04C610.078 390.403 609.576 390.947 609.192 391.672C608.808 392.376 608.616 393.251 608.616 394.296V403H605.192V393.176C605.192 391.875 604.883 390.936 604.264 390.36C603.646 389.784 602.856 389.496 601.896 389.496C601.256 389.496 600.616 389.667 599.976 390.008C599.336 390.349 598.803 390.883 598.376 391.608C597.95 392.333 597.736 393.293 597.736 394.488V403H594.312ZM630.767 403.32C629.167 403.32 627.706 403.011 626.383 402.392C625.061 401.773 624.015 400.899 623.247 399.768L625.615 397.72C626.085 398.595 626.757 399.299 627.631 399.832C628.527 400.344 629.594 400.6 630.831 400.6C631.813 400.6 632.591 400.429 633.167 400.088C633.743 399.747 634.031 399.267 634.031 398.648C634.031 398.243 633.893 397.891 633.615 397.592C633.359 397.272 632.858 397.027 632.111 396.856L628.751 396.152C627.045 395.811 625.829 395.267 625.103 394.52C624.378 393.752 624.015 392.781 624.015 391.608C624.015 390.733 624.271 389.923 624.783 389.176C625.295 388.429 626.042 387.832 627.023 387.384C628.026 386.915 629.221 386.68 630.607 386.68C632.207 386.68 633.573 386.968 634.703 387.544C635.834 388.099 636.698 388.899 637.295 389.944L634.927 391.928C634.522 391.075 633.925 390.445 633.135 390.04C632.346 389.613 631.525 389.4 630.671 389.4C629.989 389.4 629.402 389.485 628.911 389.656C628.421 389.827 628.047 390.061 627.791 390.36C627.535 390.659 627.407 391.011 627.407 391.416C627.407 391.843 627.567 392.216 627.887 392.536C628.207 392.856 628.783 393.101 629.615 393.272L633.263 394.04C634.799 394.339 635.877 394.851 636.495 395.576C637.135 396.28 637.455 397.144 637.455 398.168C637.455 399.192 637.189 400.099 636.655 400.888C636.122 401.656 635.354 402.253 634.351 402.68C633.349 403.107 632.154 403.32 630.767 403.32Z" fill="black"/>
</svg>
