<svg width="502.95" height="588" viewBox="0 0 479 570" fill="none" xmlns="http://www.w3.org/2000/svg">
<path d="M484.478 477.621L544.162 569.64H603.888L484.478 385.53L365.068 569.64H424.795L484.478 477.621Z" fill="#C5D8FF"/>
<path d="M703.633 0.503662H643.9L489.322 238.835L334.736 0.503662H275.01L459.458 284.881L274.758 569.64H334.492L489.322 330.92L644.152 569.64H703.878L519.185 284.881L703.633 0.503662Z" fill="#C5D8FF"/>
<path d="M236.863 0.467763L177.136 0.453369L361.52 284.874L176.762 569.59L236.488 569.604L421.246 284.888L236.863 0.467763Z" fill="#C5D8FF"/>
<path d="M608.61 0.503662H548.883L489.193 92.5302L429.509 0.503662H369.775L489.193 184.614L608.61 0.503662Z" fill="#C5D8FF"/>
</svg>
