<svg width="106" height="106" viewBox="0 0 106 106" fill="none" xmlns="http://www.w3.org/2000/svg">
<g clip-path="url(#clip0_371_6606)">
<path d="M52.9984 106C23.7755 106 0 82.2245 0 52.9984C0 23.7724 23.7755 0 52.9984 0C82.2213 0 105.997 23.7755 105.997 52.9984C105.997 82.2213 82.2213 105.997 52.9984 105.997V106ZM52.9984 6.62007C27.426 6.62007 6.62007 27.426 6.62007 52.9984C6.62007 78.5708 27.426 99.3768 52.9984 99.3768C78.5708 99.3768 99.3768 78.5708 99.3768 52.9984C99.3768 27.426 78.574 6.62007 52.9984 6.62007Z" fill="#FC5A44"/>
<path d="M51.9611 102.227C42.4849 102.227 33.6739 96.7792 27.1516 86.8837C20.9098 77.4139 17.4736 64.8893 17.4736 51.6145C17.4736 38.3397 20.9098 25.8151 27.1516 16.3453C33.6707 6.45299 42.4818 1.00562 51.9611 1.00562C61.4404 1.00562 70.2482 6.45299 76.7706 16.3484C83.0124 25.8183 86.4485 38.3428 86.4485 51.6177C86.4485 64.8925 83.0124 77.417 76.7706 86.8869C70.2482 96.7792 61.4404 102.23 51.9611 102.23V102.227ZM51.9611 7.62569C44.783 7.62569 37.936 12.017 32.6809 19.9926C27.1452 28.3907 24.0969 39.6227 24.0969 51.6177C24.0969 63.6126 27.1452 74.8415 32.6809 83.2427C37.936 91.2152 44.783 95.6096 51.9611 95.6096C59.1391 95.6096 65.9862 91.2183 71.2412 83.2427C76.7769 74.8447 79.8253 63.6126 79.8253 51.6177C79.8253 39.6227 76.7769 28.3938 71.2412 19.9926C65.9862 12.0202 59.1391 7.62569 51.9611 7.62569V7.62569Z" fill="#FC5A44"/>
<path d="M51.6932 102.227C46.9929 102.227 43.6797 96.9431 41.2681 85.6039C39.301 76.3547 38.2197 64.1075 38.2197 51.1133C38.2197 38.119 39.301 25.8719 41.2681 16.6227C43.6829 5.28345 46.9929 0 51.6932 0C56.3934 0 59.7066 5.28345 62.1182 16.6227C64.0853 25.8719 65.1666 38.119 65.1666 51.1133C65.1666 64.1075 64.0822 76.3547 62.1182 85.6039C59.7066 96.9431 56.3934 102.227 51.6932 102.227ZM51.6932 6.91955C50.7569 8.05127 48.9253 11.6261 47.346 19.9895C45.7288 28.542 44.8398 39.5975 44.8398 51.1133C44.8398 62.6291 45.7288 73.6846 47.346 82.2402C48.9253 90.6036 50.7569 94.1784 51.6932 95.3102C52.6294 94.1784 54.461 90.6036 56.0403 82.2402C57.6575 73.6877 58.5465 62.6322 58.5465 51.1133C58.5465 39.5943 57.6575 28.542 56.0403 19.9895C54.461 11.6261 52.6294 8.05127 51.6932 6.91955V6.91955Z" fill="#FC5A44"/>
<path d="M52.9984 76.3547C39.3106 76.3547 26.392 74.1795 16.6227 70.2264C5.90448 65.8918 0 59.7572 0 52.948C0 46.1388 5.90448 40.0042 16.6227 35.6696C26.392 31.7196 39.3106 29.5413 52.9984 29.5413C66.6862 29.5413 79.6048 31.7165 89.3742 35.6696C100.092 40.0042 105.997 46.1419 105.997 52.948C105.997 59.7541 100.092 65.8918 89.3742 70.2264C79.6048 74.1764 66.6862 76.3547 52.9984 76.3547ZM52.9984 36.1645C40.1397 36.1645 28.1038 38.1695 19.1036 41.8105C11.2857 44.9724 6.62007 49.1367 6.62007 52.9512C6.62007 56.7656 11.2857 60.9299 19.1036 64.0918C28.1038 67.7328 40.1397 69.7378 52.9984 69.7378C65.8571 69.7378 77.8931 67.7328 86.8932 64.0918C94.7112 60.9299 99.3768 56.7656 99.3768 52.9512C99.3768 49.1367 94.7112 44.9724 86.8932 41.8105C77.8931 38.1695 65.8571 36.1645 52.9984 36.1645V36.1645Z" fill="#FC5A44"/>
</g>
<defs>
<clipPath id="clip0_371_6606">
<rect width="106" height="106" fill="white"/>
</clipPath>
</defs>
</svg>
