<svg width="178" height="178" viewBox="0 0 178 178" fill="none" xmlns="http://www.w3.org/2000/svg">
<g clip-path="url(#clip0_990_6375)">
<path d="M87.9984 143C58.7755 143 35 119.224 35 89.9984C35 60.7724 58.7755 37 87.9984 37C117.221 37 140.997 60.7755 140.997 89.9984C140.997 119.221 117.221 142.997 87.9984 142.997V143ZM87.9984 43.6201C62.426 43.6201 41.6201 64.426 41.6201 89.9984C41.6201 115.571 62.426 136.377 87.9984 136.377C113.571 136.377 134.377 115.571 134.377 89.9984C134.377 64.426 113.574 43.6201 87.9984 43.6201Z" fill="#FC5A44"/>
<path d="M86.9611 139.227C77.4849 139.227 68.6739 133.779 62.1516 123.884C55.9098 114.414 52.4736 101.889 52.4736 88.6145C52.4736 75.3397 55.9098 62.8151 62.1516 53.3453C68.6707 43.453 77.4818 38.0056 86.9611 38.0056C96.4404 38.0056 105.248 43.453 111.771 53.3484C118.012 62.8183 121.449 75.3428 121.449 88.6177C121.449 101.892 118.012 114.417 111.771 123.887C105.248 133.779 96.4404 139.23 86.9611 139.23V139.227ZM86.9611 44.6257C79.783 44.6257 72.936 49.017 67.6809 56.9926C62.1452 65.3907 59.0969 76.6227 59.0969 88.6177C59.0969 100.613 62.1452 111.842 67.6809 120.243C72.936 128.215 79.783 132.61 86.9611 132.61C94.1391 132.61 100.986 128.218 106.241 120.243C111.777 111.845 114.825 100.613 114.825 88.6177C114.825 76.6227 111.777 65.3938 106.241 56.9926C100.986 49.0202 94.1391 44.6257 86.9611 44.6257Z" fill="#FC5A44"/>
<path d="M86.6932 139.227C81.9929 139.227 78.6797 133.943 76.2681 122.604C74.301 113.355 73.2197 101.108 73.2197 88.1133C73.2197 75.119 74.301 62.8719 76.2681 53.6227C78.6829 42.2834 81.9929 37 86.6932 37C91.3934 37 94.7066 42.2834 97.1182 53.6227C99.0853 62.8719 100.167 75.119 100.167 88.1133C100.167 101.108 99.0822 113.355 97.1182 122.604C94.7066 133.943 91.3934 139.227 86.6932 139.227ZM86.6932 43.9196C85.7569 45.0513 83.9253 48.6261 82.346 56.9895C80.7288 65.542 79.8398 76.5975 79.8398 88.1133C79.8398 99.6291 80.7288 110.685 82.346 119.24C83.9253 127.604 85.7569 131.178 86.6932 132.31C87.6294 131.178 89.461 127.604 91.0403 119.24C92.6575 110.688 93.5465 99.6322 93.5465 88.1133C93.5465 76.5943 92.6575 65.542 91.0403 56.9895C89.461 48.6261 87.6294 45.0513 86.6932 43.9196Z" fill="#FC5A44"/>
<path d="M87.9984 113.355C74.3106 113.355 61.392 111.18 51.6227 107.226C40.9045 102.892 35 96.7572 35 89.948C35 83.1388 40.9045 77.0042 51.6227 72.6696C61.392 68.7196 74.3106 66.5413 87.9984 66.5413C101.686 66.5413 114.605 68.7165 124.374 72.6696C135.092 77.0042 140.997 83.1419 140.997 89.948C140.997 96.7541 135.092 102.892 124.374 107.226C114.605 111.176 101.686 113.355 87.9984 113.355ZM87.9984 73.1645C75.1397 73.1645 63.1038 75.1695 54.1036 78.8105C46.2857 81.9724 41.6201 86.1367 41.6201 89.9512C41.6201 93.7656 46.2857 97.9299 54.1036 101.092C63.1038 104.733 75.1397 106.738 87.9984 106.738C100.857 106.738 112.893 104.733 121.893 101.092C129.711 97.9299 134.377 93.7656 134.377 89.9512C134.377 86.1367 129.711 81.9724 121.893 78.8105C112.893 75.1695 100.857 73.1645 87.9984 73.1645Z" fill="#FC5A44"/>
</g>
<circle cx="89" cy="89" r="87.5" stroke="#FC5A44" stroke-width="3"/>
<defs>
<clipPath id="clip0_990_6375">
<rect width="106" height="106" fill="white" transform="translate(35 37)"/>
</clipPath>
</defs>
</svg>
