<svg width="570" height="666" viewBox="0 0 570 666" fill="none" xmlns="http://www.w3.org/2000/svg">
<path d="M565.866 558.062L635.576 665.58H705.336L565.866 450.461L426.396 665.58H496.156L565.866 558.062Z" fill="#FC5A44"/>
<path d="M821.838 0.588623H752.07L571.524 279.061L390.97 0.588623H321.209L536.644 332.861L320.915 665.58H390.684L571.524 386.654L752.364 665.58H822.124L606.404 332.861L821.838 0.588623Z" fill="#FC5A44"/>
<path d="M276.653 0.546603L206.893 0.529785L422.251 332.853L206.456 665.521L276.216 665.538L492.012 332.87L276.653 0.546603Z" fill="#FC5A44"/>
<path d="M710.851 0.588623H641.091L571.372 108.114L501.663 0.588623H431.894L571.372 215.707L710.851 0.588623Z" fill="#FC5A44"/>
</svg>
