<svg
    width="662"
    height="669"
    viewBox="0 0 662 669"
    fill="none"
    xmlns="http://www.w3.org/2000/svg"
  >
    <path
      d="M618.832 0.591309H548.724L367.301 280.318L185.869 0.591309H115.77L332.251 334.361L115.475 668.578H185.582L367.301 388.395L549.02 668.578H619.119L402.35 334.361L618.832 0.591309Z"
      fill="#C5D8FF"
    />
    <path
      d="M515.136 334.808L731.549 0.996826L661.442 1.01372L445.037 334.825L661.881 669L731.98 668.983L515.136 334.808Z"
      fill="#C5D8FF"
    />
    <path
      d="M70.9974 0.54912L0.898269 0.532227L217.303 334.352L0.458984 668.519L70.5581 668.536L287.402 334.369L70.9974 0.54912Z"
      fill="#C5D8FF"
    />
    <path
      d="M507.305 0.591309H437.206L367.149 108.601L297.1 0.591309H226.993L367.149 216.679L507.305 0.591309Z"
      fill="#C5D8FF"
    />
  </svg>

